<svg xmlns="http://www.w3.org/2000/svg" xmlns:xlink="http://www.w3.org/1999/xlink" viewBox="0 0 1040.9 1315.12"><defs><style>.cls-1{fill:none;}.cls-2{clip-path:url(#clip-path);}.cls-3{fill:#434244;}.cls-4{fill:#707070;}.cls-5{fill:#ededed;}.cls-14,.cls-6{fill:#e7b933;}.cls-10,.cls-7{fill:#cb2e2b;}.cls-19,.cls-8{fill:#84ba51;}.cls-24,.cls-9{fill:#d56c2f;}.cls-10,.cls-11,.cls-14,.cls-15,.cls-18,.cls-19,.cls-24{fill-rule:evenodd;}.cls-11,.cls-20{fill:#5fa7d1;}.cls-12,.cls-18{fill:#895299;}.cls-13,.cls-15,.cls-29{fill:#fff;}.cls-13,.cls-15{opacity:0.2;}.cls-16{fill:#bcc8a3;}.cls-17{fill:#a32430;}.cls-21{fill:#9e4128;}.cls-22{fill:#484848;}.cls-23{fill:#aa8230;}.cls-25{fill:#272525;}.cls-26{fill:#7a1d27;}.cls-27{fill:#f2d834;}.cls-28{fill:#e8ab2a;}.cls-29{stroke:#fff;stroke-linecap:round;stroke-linejoin:round;stroke-width:10px;opacity:0.3;}.cls-30{fill:#dc4549;}.cls-31{clip-path:url(#clip-path-2);}</style><clipPath id="clip-path" transform="translate(131.43 464.39)"><rect class="cls-1" width="750" height="500"/></clipPath><clipPath id="clip-path-2" transform="translate(131.43 464.39)"><polyline class="cls-1" points="838.67 208.56 838.67 756.46 -92.19 756.46 -92.19 208.56"/></clipPath></defs><title>936907</title><g id="OBJECTS"><g class="cls-2"><path class="cls-3" d="M782.87,104.67v0l-.32-.13-.66-.25L742.49,85.36l-.48-.19-.88-.34v0c-11-3.92-26.28,1.08-35,9.86a30.86,30.86,0,0,0-9,20.27L662.84,149.2a30.9,30.9,0,0,0-20.27,9c-8.77,8.78-13.78,24.1-9.86,35h0l.34.89.18.47,18.91,39.42c.09.22.16.44.25.65l.13.32h0a31,31,0,0,0,57.11-24.38h0l-9.49-24.4,33.93-33.93,24.4,9.48h0a31,31,0,1,0,24.37-57.11Z" transform="translate(131.43 464.39)"/><path class="cls-4" d="M684.54,163.65a26.45,26.45,0,1,1-37.4,0A26.44,26.44,0,0,1,684.54,163.65Z" transform="translate(131.43 464.39)"/><path class="cls-4" d="M752,96.15a26.45,26.45,0,1,1-37.4,0A26.44,26.44,0,0,1,752,96.15Z" transform="translate(131.43 464.39)"/><path class="cls-5" d="M671.35,171.39l-6.53,6.52-6.53-6.52a1.11,1.11,0,0,0-1.57,0l-1.85,1.85a1.12,1.12,0,0,0,0,1.57l6.53,6.53-6.53,6.53a1.13,1.13,0,0,0,0,1.58l1.84,1.84a1.13,1.13,0,0,0,1.58,0l6.53-6.53,6.53,6.53a1.12,1.12,0,0,0,1.57,0l1.84-1.85a1.11,1.11,0,0,0,0-1.57l-6.53-6.53,6.52-6.53a1.1,1.1,0,0,0,0-1.57l-1.84-1.84A1.1,1.1,0,0,0,671.35,171.39Z" transform="translate(131.43 464.39)"/><path class="cls-5" d="M701.09,151.18a6.26,6.26,0,1,1-8.86,0A6.26,6.26,0,0,1,701.09,151.18Z" transform="translate(131.43 464.39)"/><path class="cls-5" d="M714.43,137.84a6.26,6.26,0,1,1-8.86,0A6.26,6.26,0,0,1,714.43,137.84Z" transform="translate(131.43 464.39)"/><path class="cls-6" d="M726.27,99.9a6.26,6.26,0,1,1-8.85,0A6.25,6.25,0,0,1,726.27,99.9Z" transform="translate(131.43 464.39)"/><path class="cls-7" d="M727.94,120.24a6.26,6.26,0,1,1-8.85,0A6.26,6.26,0,0,1,727.94,120.24Z" transform="translate(131.43 464.39)"/><path class="cls-8" d="M746.62,101.56a6.26,6.26,0,1,1-8.85,0A6.26,6.26,0,0,1,746.62,101.56Z" transform="translate(131.43 464.39)"/><path class="cls-9" d="M746.14,119.76a6.26,6.26,0,1,1-8.86,0A6.27,6.27,0,0,1,746.14,119.76Z" transform="translate(131.43 464.39)"/><circle class="cls-8" cx="756.12" cy="36.46" r="35.17" transform="translate(567.53 1186.87) rotate(-67.75)"/><polygon class="cls-10" points="872.5 413.31 924.61 413.31 924.61 465.41 872.5 413.31"/><rect class="cls-8" x="747.2" y="185.7" width="52.1" height="52.1" transform="translate(208.19 1073.19) rotate(-45)"/><polygon class="cls-11" points="930.86 519.81 953.48 506.75 976.1 519.81 976.1 545.93 953.48 558.99 930.86 545.93 930.86 519.81"/><rect class="cls-12" x="602.37" y="93.51" width="50.24" height="50.24" transform="translate(231.34 942.85) rotate(-45)"/><rect class="cls-13" x="614.66" y="105.81" width="25.64" height="25.64" transform="translate(231.35 942.86) rotate(-45)"/><polygon class="cls-14" points="802.42 512.5 813.22 501.71 802.42 490.92 802.42 475.66 787.17 475.66 776.38 464.87 765.59 475.66 750.32 475.66 750.32 490.92 739.53 501.71 750.32 512.5 750.32 527.76 765.58 527.76 776.38 538.55 787.17 527.76 802.42 527.76 802.42 512.5"/><polygon class="cls-15" points="794.88 509.37 802.54 501.71 794.88 494.04 794.88 483.21 784.04 483.21 776.38 475.54 768.71 483.21 757.88 483.21 757.88 494.04 750.21 501.71 757.88 509.37 757.88 520.21 768.71 520.21 776.38 527.88 784.04 520.21 794.88 520.21 794.88 509.37"/><rect class="cls-7" x="953.48" y="637.33" width="14.77" height="14.77"/><rect class="cls-7" x="953.48" y="612.98" width="14.77" height="14.77"/><rect class="cls-7" x="953.48" y="661.68" width="14.77" height="14.77"/><rect class="cls-12" x="824.51" y="425.43" width="14.77" height="14.77"/><rect class="cls-12" x="824.51" y="401.08" width="14.77" height="14.77"/><rect class="cls-12" x="824.51" y="449.77" width="14.77" height="14.77"/><rect class="cls-12" x="824.51" y="474.12" width="14.77" height="14.77"/><rect class="cls-12" x="824.51" y="498.46" width="14.77" height="14.77"/><path class="cls-6" d="M844-47.86a6.56,6.56,0,0,1-6.55,6.56,6.56,6.56,0,0,1-6.56-6.56,6.56,6.56,0,0,1,6.56-6.55A6.55,6.55,0,0,1,844-47.86Z" transform="translate(131.43 464.39)"/><path class="cls-7" d="M830.16-31.56A6.56,6.56,0,0,1,823.6-25a6.55,6.55,0,0,1-6.55-6.55,6.56,6.56,0,0,1,6.55-6.56A6.56,6.56,0,0,1,830.16-31.56Z" transform="translate(131.43 464.39)"/><path class="cls-9" d="M844-18.45a6.55,6.55,0,0,1-6.55,6.55,6.56,6.56,0,0,1-6.56-6.55A6.56,6.56,0,0,1,837.43-25,6.56,6.56,0,0,1,844-18.45Z" transform="translate(131.43 464.39)"/><rect class="cls-12" x="55.38" y="465.4" width="28.07" height="28.07"/><polygon class="cls-11" points="173.76 489.26 225.86 489.26 225.86 541.37 173.76 489.26"/><polygon class="cls-11" points="0 519.81 22.62 506.75 45.24 519.81 45.24 545.93 22.62 558.99 0 545.93 0 519.81"/><path class="cls-6" d="M50.65-46.87a3.81,3.81,0,0,0-4.48.43A3.9,3.9,0,0,0,44.85-44,3.92,3.92,0,0,0,48-39.65l.44.08c0,.32-.84,10.43-1.75,15.32-.42,2.17-2,1.4-2.84.78L29.4-34.8a2.28,2.28,0,0,1,.23-.27,4.67,4.67,0,0,0,.54-6,4.68,4.68,0,0,0-5.12-1.89A4.72,4.72,0,0,0,22-36.42a4.71,4.71,0,0,0,4.78,2.73l.5-.05a.62.62,0,0,1,0,.18c0,5.81.46,12.63-.2,18.4-.28,2.46-1.15,2-2.36,1.64L-.38-22A11.09,11.09,0,0,0-2.1-35.36a11.11,11.11,0,0,0-15.71,0,11.11,11.11,0,0,0,0,15.71,11.06,11.06,0,0,0,12.94,2c2.19,6.92,6.46,20.54,8.15,26a1.8,1.8,0,0,1-1.23,2.38l-4.53,0-5.45,0-5.58,0-3.27,0c-.11,0-.22,0-.33,0s0-.29,0-.43a4.64,4.64,0,0,0-.75-3.11,4.71,4.71,0,0,0-6.56-1.34,4.68,4.68,0,0,0-1.41,6.4,4.58,4.58,0,0,0,3.94,2.25,4.53,4.53,0,0,0,3.21-1.19c.07,0,.13-.11.21-.18l.15.14,1.79,2.49c.67.91,1.33,1.83,2,2.75l2,2.76,2,2.75c.66.9,1.3,1.81,2,2.72s1.42,1.8,2,2.79c.87,1.46-1.86,1.43-3.17,1.49l-12.31.62a3.32,3.32,0,0,1,0-.35,3.83,3.83,0,0,0-.65-2.63,3.89,3.89,0,0,0-5.34-1.11A3.9,3.9,0,0,0-29.26,33a.59.59,0,0,1,.14.38l.65.65a.71.71,0,0,1,.42.17,3.76,3.76,0,0,0,2.77.54,3.66,3.66,0,0,0,2-1l.19-.17H-23c1,.86,2.07,1.78,3.12,2.68s2.06,1.79,3.1,2.69,2.1,1.8,3.14,2.71,2.06,1.8,3.1,2.69,2.09,1.82,3.15,2.7c.11-.08.21-.13.29-.2l2.45-2.05,2.72-2.3L.17,40.65,2.42,38.7l1.17-1L6.15,35.4,8.84,33c.71-.64,1.43-1.29,2.14-1.95l3-2.72,3.35-3.11c.93-.86,1.86-1.72,2.79-2.6l1.32-1.27,2.7-2.59,1.41-1.37L29,14,33.59,9.4l2.94-3c.94-1,1.88-2,2.81-2.93S41.15,1.61,42,.66,43.67-1.1,44.49-2c.38-.42.79-.83,1.17-1.25,1-1.14,2.08-2.27,3.11-3.41s2-2.19,3-3.3c.75-.83,1.49-1.67,2.23-2.51.88-1,1.75-2,2.63-3.05l1.66-1.94c.51-.6,1-1.2,1.5-1.8l1.36-1.65,1.44-1.75.72-.88.24-.32a1.72,1.72,0,0,0-.3-.47c-.82-1.05-1.66-2.11-2.48-3.17l-2.38-3-1.91-2.44-1.89-2.41c-.64-.82-1.29-1.66-1.94-2.48-.5-.63-1-1.27-1.49-1.91-.1-.12-.18-.25-.27-.36s.19-.22.3-.31a3.86,3.86,0,0,0,1.49-3.18,3.34,3.34,0,0,0-.54-1.83s0-.07,0-.11l-1.31-1.31A.5.5,0,0,1,50.65-46.87Z" transform="translate(131.43 464.39)"/><path class="cls-12" d="M.91,78.85H15.55V94H.91V78.85ZM52.61,94H38V78.85H52.61V94Z" transform="translate(131.43 464.39)"/><rect class="cls-16" x="121.45" y="170.58" width="43.75" height="50.33" transform="translate(35 623.07) rotate(-45)"/><path class="cls-17" d="M126.39,163.41a1.24,1.24,0,1,0,0,1.76A1.23,1.23,0,0,0,126.39,163.41Z" transform="translate(131.43 464.39)"/><path class="cls-3" d="M190.29,204.11a3.83,3.83,0,0,0,0-5.41l-49.24-49.23a3.8,3.8,0,0,0-5.4,0l-42,42s-5.42,2.63,23.3,31.35,31.35,23.29,31.35,23.29Zm-65.65-38.94a1.24,1.24,0,1,1,1.75,0A1.24,1.24,0,0,1,124.64,165.17Zm21,63.84-35.59-35.59L141,162.48l35.6,35.59Z" transform="translate(131.43 464.39)"/><path class="cls-7" d="M103.73,301.16l97-97a3.8,3.8,0,0,0,0-5.4l-60-60a3.83,3.83,0,0,0-5.41,0l-97,97S27.56,246,60.49,279,103.73,301.16,103.73,301.16ZM87.11,231.55a1.27,1.27,0,0,1-1.8,0L80.73,227l-4.57,4.58a1.27,1.27,0,0,1-1.8,0l-4-4a1.27,1.27,0,0,1,0-1.8l4.58-4.58-4.58-4.57a1.28,1.28,0,0,1,0-1.81l4-4a1.27,1.27,0,0,1,1.8,0l4.58,4.57,4.57-4.57a1.28,1.28,0,0,1,1.81,0l4,4a1.28,1.28,0,0,1,0,1.81l-4.57,4.57,4.57,4.58a1.27,1.27,0,0,1,0,1.8Zm14.76-8a2.91,2.91,0,0,1,0-4.12,2.92,2.92,0,0,1,4.12,0l13.43,13.43A2.91,2.91,0,0,1,115.3,237Zm2.46,32.89a5.73,5.73,0,1,1,8.11,0A5.73,5.73,0,0,1,104.33,256.43ZM88,282.74a.88.88,0,1,1,.06-1.76.9.9,0,0,1,.85.91A.88.88,0,0,1,88,282.74Zm3.32-3.08a.88.88,0,0,1,.06-1.75.89.89,0,0,1,.85.9A.88.88,0,0,1,91.35,279.66Zm3.33-3.07a.88.88,0,0,1-.85-.91.87.87,0,0,1,.91-.85.88.88,0,0,1,.84.91A.87.87,0,0,1,94.68,276.59Zm-6.77,9.34a.88.88,0,1,1,.91-.85A.88.88,0,0,1,87.91,285.93Zm3.33-3.08a.88.88,0,1,1,.91-.84A.88.88,0,0,1,91.24,282.85Zm3.32-3.07a.88.88,0,1,1,.91-.85A.89.89,0,0,1,94.56,279.78ZM98,275a.88.88,0,1,1-.07,1.75A.88.88,0,1,1,98,275ZM87.8,289.12a.88.88,0,1,1,.91-.85A.89.89,0,0,1,87.8,289.12ZM91.12,286a.88.88,0,1,1,.91-.84A.87.87,0,0,1,91.12,286ZM94.45,283a.88.88,0,1,1,.91-.85A.88.88,0,0,1,94.45,283Zm3.32-3.08a.87.87,0,0,1-.84-.91.88.88,0,1,1,1.75.06A.88.88,0,0,1,97.77,279.89Zm21.94-15.44a5.73,5.73,0,1,1,8.11,0A5.73,5.73,0,0,1,119.71,264.45Zm-15.63,18.86a.88.88,0,0,1,.07-1.76.88.88,0,0,1-.07,1.76ZM101,280a.88.88,0,1,1,.91-.84A.88.88,0,0,1,101,280Zm-10,9.23a.88.88,0,1,1,.07-1.75.87.87,0,0,1,.84.91A.88.88,0,0,1,91,289.23Zm3.32-3.07a.88.88,0,0,1-.84-.91.88.88,0,1,1,.84.91Zm3.33-3.08a.89.89,0,0,1-.85-.91.88.88,0,1,1,.85.91Zm-6.77,9.34a.88.88,0,1,1,.92-.84A.88.88,0,0,1,90.89,292.42Zm3.33-3.07a.88.88,0,0,1-.84-.91.87.87,0,0,1,.91-.85.88.88,0,0,1-.07,1.76Zm3.32-3.08a.88.88,0,0,1,.07-1.76.9.9,0,0,1,.85.91A.88.88,0,0,1,97.54,286.27Zm3.33-3.07a.88.88,0,1,1,.06-1.76.88.88,0,0,1,.85.91A.89.89,0,0,1,100.87,283.2Zm-6.76,9.34a.88.88,0,1,1,.91-.85A.9.9,0,0,1,94.11,292.54Zm3.32-3.08a.88.88,0,1,1,.91-.85A.88.88,0,0,1,97.43,289.46Zm3.33-3.08a.88.88,0,1,1,.9-.84A.87.87,0,0,1,100.76,286.38ZM94,295.72a.88.88,0,1,1,.91-.84A.87.87,0,0,1,94,295.72Zm3.33-3.07a.88.88,0,1,1,.06-1.76.9.9,0,0,1,.85.91A.88.88,0,0,1,97.32,292.65Zm3.32-3.08a.86.86,0,0,1-.84-.9.88.88,0,1,1,1.75.06A.87.87,0,0,1,100.64,289.57ZM104,286.5a.88.88,0,1,1,.06-1.76.9.9,0,0,1,.85.91A.88.88,0,0,1,104,286.5Zm-6.77,9.34a.88.88,0,1,1,.91-.85A.88.88,0,0,1,97.2,295.84Zm3.33-3.07a.89.89,0,0,1-.85-.91.88.88,0,1,1,1.76.06A.9.9,0,0,1,100.53,292.77Zm3.32-3.09a.88.88,0,0,1,.06-1.75.88.88,0,1,1-.06,1.75Zm13.09-66.86c-28.72-28.72-23.3-31.35-23.3-31.35l42-42a3.8,3.8,0,0,1,5.4,0l49.24,49.23a3.83,3.83,0,0,1,0,5.41l-42,42S145.66,251.54,116.94,222.82Z" transform="translate(131.43 464.39)"/><path class="cls-14" d="M-20.78,100.54a34.22,34.22,0,0,0-29-16.08A34.24,34.24,0,0,0-84,118.7,34.24,34.24,0,0,0-49.8,152.94a34.19,34.19,0,0,0,27.36-13.65l-28-20.36Z" transform="translate(131.43 464.39)"/><path class="cls-6" d="M-86.88-47.86a6.56,6.56,0,0,1-6.55,6.56A6.56,6.56,0,0,1-100-47.86a6.55,6.55,0,0,1,6.55-6.55A6.55,6.55,0,0,1-86.88-47.86Z" transform="translate(131.43 464.39)"/><path class="cls-8" d="M-73-31.56A6.55,6.55,0,0,1-79.6-25a6.56,6.56,0,0,1-6.56-6.55,6.56,6.56,0,0,1,6.56-6.56A6.56,6.56,0,0,1-73-31.56Z" transform="translate(131.43 464.39)"/><path class="cls-9" d="M-86.88-18.45a6.55,6.55,0,0,1-6.55,6.55A6.55,6.55,0,0,1-100-18.45,6.56,6.56,0,0,1-93.43-25,6.56,6.56,0,0,1-86.88-18.45Z" transform="translate(131.43 464.39)"/><path class="cls-3" d="M101.89,129.94H89.13V117.16a2.51,2.51,0,0,0-2.52-2.51H75.4a2.51,2.51,0,0,0-2.51,2.51v12.78H60.12a2.51,2.51,0,0,0-2.51,2.51v11.21a2.51,2.51,0,0,0,2.51,2.51H72.89v12.77a2.51,2.51,0,0,0,2.51,2.52H86.61a2.52,2.52,0,0,0,2.52-2.52V146.17h12.76a2.5,2.5,0,0,0,2.51-2.51V132.45A2.5,2.5,0,0,0,101.89,129.94ZM77.26,141.79A5.3,5.3,0,1,1,81,143.33,5.3,5.3,0,0,1,77.26,141.79Z" transform="translate(131.43 464.39)"/><path class="cls-3" d="M782.87-443.23v0l-.32-.13-.66-.25-39.41-18.91-.48-.19-.88-.34v0c-11-3.92-26.28,1.08-35,9.86a30.86,30.86,0,0,0-9,20.27L662.84-398.7a30.9,30.9,0,0,0-20.27,9c-8.77,8.78-13.78,24.1-9.86,35.05l0,0,.34.88.18.47,18.91,39.42c.09.22.16.44.25.65l.13.32h0a30.94,30.94,0,0,0,6.58,9.74,31.05,31.05,0,0,0,43.92,0,31,31,0,0,0,6.61-34.12h0l-9.49-24.4,33.93-33.93,24.4,9.49v0a31.07,31.07,0,0,0,34.11-6.61,31.06,31.06,0,0,0,0-43.93A30.85,30.85,0,0,0,782.87-443.23Z" transform="translate(131.43 464.39)"/><path class="cls-4" d="M684.54-384.25a26.44,26.44,0,0,1,0,37.4,26.44,26.44,0,0,1-37.4,0,26.44,26.44,0,0,1,0-37.4A26.44,26.44,0,0,1,684.54-384.25Z" transform="translate(131.43 464.39)"/><rect class="cls-8" x="747.2" y="-362.2" width="52.1" height="52.1" transform="translate(595.62 912.71) rotate(-45)"/><polygon class="cls-14" points="787.68 230.96 809.18 218.55 830.68 230.96 830.68 255.78 809.18 268.2 787.68 255.78 787.68 230.96"/><polygon class="cls-18" points="949.09 217.65 977.43 201.29 1005.77 217.65 1005.77 250.38 977.43 266.74 949.09 250.38 949.09 217.65"/><polygon class="cls-10" points="1000.6 320.79 1013.06 346.02 1040.9 350.07 1020.75 369.71 1025.51 397.44 1000.6 384.35 975.7 397.44 980.45 369.71 960.3 350.07 988.15 346.02 1000.6 320.79"/><polygon class="cls-19" points="742.57 170.1 755.02 195.33 782.86 199.37 762.72 219.01 767.47 246.75 742.57 233.65 717.66 246.75 722.42 219.01 702.27 199.37 730.11 195.33 742.57 170.1"/><rect class="cls-20" x="762.57" y="-130.35" width="50.24" height="50.24" transform="translate(436.56 990.56) rotate(-45)"/><rect class="cls-13" x="774.87" y="-118.05" width="25.64" height="25.64" transform="translate(436.57 990.57) rotate(-45)"/><rect class="cls-21" x="719.5" y="-174.51" width="50.5" height="2.36" transform="translate(472.11 940.23) rotate(-45)"/><polygon class="cls-7" points="892.15 275.09 914.05 297 902.05 296.6 901.65 309.4 879.75 287.5 892.15 275.09"/><rect class="cls-22" x="694.86" y="-187.39" width="15.42" height="15.17" transform="translate(464.36 908.52) rotate(-45)"/><rect class="cls-22" x="734.44" y="-147.81" width="15.42" height="15.17" transform="translate(447.96 948.1) rotate(-45)"/><rect class="cls-22" x="714.65" y="-167.6" width="15.42" height="15.17" transform="translate(456.16 928.31) rotate(-45)"/><rect class="cls-23" x="663.56" y="-156.07" width="60.95" height="50.5" transform="translate(427.21 916.83) rotate(-45)"/><rect class="cls-6" x="708.64" y="-188.47" width="13.18" height="71.15" transform="translate(449.03 925.36) rotate(-45)"/><rect class="cls-6" x="668.6" y="-143.41" width="6.72" height="66.17" transform="translate(406.26 907.23) rotate(-45)"/><path class="cls-7" d="M613.5-350.75V-359h8v-8.24H613.3V-359h-8v8.24h-32V-359h-8v-8.24H557V-359h8v8.24h8v8.24H557v24.72h8v8.24h8v8.24h32.35v-8.24h8v-8.24h8v-24.72H605.46v-8.24Zm-40.39,16.48h8V-326H565.27v-8.24Zm40.19,0V-326H597.42v-8.24H613.3Z" transform="translate(131.43 464.39)"/><path class="cls-20" d="M786.93-266.25v-9h-8.77v-9H760.39v9h-8.55v-9H734.07v9H725.3v9h-8.78v54h9v-9h8.55v9h9v-9h8.55v9h9v-9h8.56v9h9v-9h8.55v9h9v-54Zm-.22,18h-8.77v9h-8.55v-18h17.32Zm-61.19-9h17.33v9h-8.78v9h-8.55v-18Z" transform="translate(131.43 464.39)"/><rect class="cls-7" x="953.48" y="113.78" width="14.77" height="14.77"/><rect class="cls-7" x="953.48" y="138.12" width="14.77" height="14.77"/><rect class="cls-7" x="953.48" y="162.47" width="14.77" height="14.77"/><path class="cls-6" d="M640.87-189.69a6.55,6.55,0,0,1-6.55,6.55,6.56,6.56,0,0,1-6.56-6.55,6.56,6.56,0,0,1,6.56-6.56A6.56,6.56,0,0,1,640.87-189.69Z" transform="translate(131.43 464.39)"/><path class="cls-7" d="M627.05-173.4a6.56,6.56,0,0,1-6.56,6.55,6.55,6.55,0,0,1-6.55-6.55,6.55,6.55,0,0,1,6.55-6.55A6.56,6.56,0,0,1,627.05-173.4Z" transform="translate(131.43 464.39)"/><path class="cls-8" d="M654.69-173.4a6.55,6.55,0,0,1-6.55,6.55,6.55,6.55,0,0,1-6.55-6.55,6.55,6.55,0,0,1,6.55-6.55A6.55,6.55,0,0,1,654.69-173.4Z" transform="translate(131.43 464.39)"/><path class="cls-9" d="M640.87-160.29a6.55,6.55,0,0,1-6.55,6.55,6.56,6.56,0,0,1-6.56-6.55,6.56,6.56,0,0,1,6.56-6.56A6.56,6.56,0,0,1,640.87-160.29Z" transform="translate(131.43 464.39)"/><path class="cls-3" d="M850.9-169.61H838.14v-12.77a2.52,2.52,0,0,0-2.51-2.52H824.42a2.51,2.51,0,0,0-2.51,2.52v12.77H809.13a2.51,2.51,0,0,0-2.51,2.51v11.21a2.51,2.51,0,0,0,2.51,2.52h12.78v12.77a2.51,2.51,0,0,0,2.51,2.51h11.21a2.51,2.51,0,0,0,2.51-2.51v-12.77H850.9a2.51,2.51,0,0,0,2.51-2.52V-167.1A2.51,2.51,0,0,0,850.9-169.61Zm-24.62,11.85a5.24,5.24,0,0,1-1.55-3.73,5.31,5.31,0,0,1,1.55-3.75,5.33,5.33,0,0,1,3.74-1.55,5.29,5.29,0,0,1,5.28,5.3,5.27,5.27,0,0,1-5.28,5.27A5.32,5.32,0,0,1,826.28-157.76Z" transform="translate(131.43 464.39)"/><path class="cls-3" d="M317.44-169.28v0l-.32-.13-.66-.25-39.41-18.91-.48-.19-.88-.34v0c-11-3.92-26.28,1.08-35.05,9.86a30.91,30.91,0,0,0-9,20.27l-34.21,34.21a30.94,30.94,0,0,0-20.27,9c-8.77,8.78-13.77,24.1-9.85,35.05l0,0,.34.88.18.47L186.69-39.9c.09.22.17.44.26.65l.12.32h0a30.94,30.94,0,0,0,6.58,9.74,31.05,31.05,0,0,0,43.92,0,31,31,0,0,0,6.61-34.12h0l-9.49-24.4,33.94-33.93,24.39,9.48h0a31.07,31.07,0,0,0,34.11-6.61,31.06,31.06,0,0,0,0-43.93A30.85,30.85,0,0,0,317.44-169.28Z" transform="translate(131.43 464.39)"/><path class="cls-4" d="M219.11-110.3a26.44,26.44,0,0,1,0,37.4,26.44,26.44,0,0,1-37.4,0,26.44,26.44,0,0,1,0-37.4A26.44,26.44,0,0,1,219.11-110.3Z" transform="translate(131.43 464.39)"/><path class="cls-4" d="M286.61-177.8a26.44,26.44,0,0,1,0,37.4,26.44,26.44,0,0,1-37.4,0,26.44,26.44,0,0,1,0-37.4A26.44,26.44,0,0,1,286.61-177.8Z" transform="translate(131.43 464.39)"/><path class="cls-5" d="M205.92-102.56,199.39-96l-6.53-6.52a1.1,1.1,0,0,0-1.57,0l-1.85,1.84a1.11,1.11,0,0,0,0,1.57L196-92.62l-6.53,6.53a1.13,1.13,0,0,0,0,1.58l1.85,1.84a1.12,1.12,0,0,0,1.57,0l6.53-6.53,6.53,6.53a1.12,1.12,0,0,0,1.57,0l1.85-1.85a1.12,1.12,0,0,0,0-1.57l-6.53-6.53,6.53-6.53a1.12,1.12,0,0,0,0-1.57l-1.85-1.84A1.1,1.1,0,0,0,205.92-102.56Z" transform="translate(131.43 464.39)"/><path class="cls-5" d="M235.66-122.77a6.26,6.26,0,0,1,0,8.85,6.26,6.26,0,0,1-8.86,0,6.26,6.26,0,0,1,0-8.85A6.26,6.26,0,0,1,235.66-122.77Z" transform="translate(131.43 464.39)"/><path class="cls-5" d="M249-136.11a6.25,6.25,0,0,1,0,8.85,6.25,6.25,0,0,1-8.85,0,6.25,6.25,0,0,1,0-8.85A6.25,6.25,0,0,1,249-136.11Z" transform="translate(131.43 464.39)"/><path class="cls-6" d="M260.85-174a6.26,6.26,0,0,1,0,8.85,6.26,6.26,0,0,1-8.86,0,6.26,6.26,0,0,1,0-8.85A6.26,6.26,0,0,1,260.85-174Z" transform="translate(131.43 464.39)"/><path class="cls-7" d="M262.52-153.71a6.28,6.28,0,0,1,0,8.86,6.26,6.26,0,0,1-8.86,0,6.28,6.28,0,0,1,0-8.86A6.28,6.28,0,0,1,262.52-153.71Z" transform="translate(131.43 464.39)"/><path class="cls-8" d="M281.2-172.38a6.26,6.26,0,0,1,0,8.85,6.25,6.25,0,0,1-8.85,0,6.25,6.25,0,0,1,0-8.85A6.26,6.26,0,0,1,281.2-172.38Z" transform="translate(131.43 464.39)"/><path class="cls-9" d="M280.71-154.19a6.26,6.26,0,0,1,0,8.86,6.26,6.26,0,0,1-8.85,0,6.27,6.27,0,0,1,0-8.86A6.27,6.27,0,0,1,280.71-154.19Z" transform="translate(131.43 464.39)"/><circle class="cls-8" cx="290.69" cy="-237.49" r="35.17" transform="translate(578.68 568.06) rotate(-75.4)"/><rect class="cls-12" x="520.8" y="191.45" width="28.07" height="28.07"/><polygon class="cls-11" points="639.18 215.31 691.29 215.31 691.29 267.42 639.18 215.31"/><polygon class="cls-10" points="407.08 139.36 459.18 139.36 459.18 191.46 407.08 139.36"/><polygon class="cls-24" points="574.27 602.48 537.43 565.64 574.27 528.8 574.27 602.48"/><rect class="cls-8" x="281.77" y="-88.25" width="52.1" height="52.1" transform="translate(265.58 663.84) rotate(-45)"/><polygon class="cls-14" points="322.25 504.91 343.75 492.5 365.25 504.91 365.25 529.73 343.75 542.15 322.25 529.73 322.25 504.91"/><polygon class="cls-18" points="483.66 491.6 512 475.24 540.34 491.6 540.34 524.33 512 540.69 483.66 524.33 483.66 491.6"/><polygon class="cls-11" points="465.43 245.86 488.05 232.8 510.67 245.86 510.67 271.98 488.05 285.04 465.43 271.98 465.43 245.86"/><polygon class="cls-10" points="535.17 594.74 547.63 619.97 575.47 624.02 555.32 643.66 560.08 671.39 535.17 658.3 510.27 671.39 515.02 643.66 494.88 624.02 522.72 619.97 535.17 594.74"/><polygon class="cls-19" points="277.14 444.05 289.59 469.28 317.44 473.32 297.29 492.96 302.05 520.7 277.14 507.6 252.23 520.7 256.99 492.96 236.84 473.32 264.68 469.28 277.14 444.05"/><path class="cls-6" d="M516.08-320.82a3.81,3.81,0,0,0-4.48.43,3.9,3.9,0,0,0-1.32,2.45,3.92,3.92,0,0,0,3.11,4.34l.44.08c0,.32-.84,10.43-1.76,15.32-.41,2.17-2,1.4-2.84.78q-7.19-5.65-14.4-11.33a2.28,2.28,0,0,1,.23-.27,4.67,4.67,0,0,0,.54-6,4.7,4.7,0,0,0-5.13-1.89,4.72,4.72,0,0,0-3.06,6.53,4.7,4.7,0,0,0,4.77,2.73l.51-.05a1.41,1.41,0,0,1,0,.18c0,5.81.46,12.63-.2,18.4-.29,2.46-1.15,2-2.36,1.64l-25.1-8.44a11.09,11.09,0,0,0-1.72-13.4,11.12,11.12,0,0,0-15.72,0,11.11,11.11,0,0,0,0,15.71,11.06,11.06,0,0,0,12.94,2c2.19,6.92,6.46,20.54,8.15,26a1.8,1.8,0,0,1-1.23,2.38l-4.54,0-5.45,0-5.57,0-3.27,0c-.12,0-.23,0-.33,0s0-.29,0-.43a4.69,4.69,0,0,0-.75-3.11A4.71,4.71,0,0,0,441-268a4.68,4.68,0,0,0-1.41,6.4,4.56,4.56,0,0,0,3.93,2.25,4.56,4.56,0,0,0,3.22-1.19l.21-.18.15.14,1.79,2.49c.67.91,1.33,1.83,2,2.75s1.33,1.83,2,2.76l2,2.75c.66.9,1.3,1.81,2,2.72s1.42,1.8,2,2.79c.87,1.46-1.86,1.43-3.17,1.49l-12.31.62c0-.14,0-.24,0-.35a3.77,3.77,0,0,0-.64-2.63,3.9,3.9,0,0,0-5.34-1.11,3.9,3.9,0,0,0-1.19,5.41.58.58,0,0,1,.13.38l.66.65a.71.71,0,0,1,.41.17,3.79,3.79,0,0,0,2.78.54,3.66,3.66,0,0,0,2-1l.19-.17h.09c1,.86,2.06,1.78,3.11,2.68s2.07,1.79,3.1,2.69,2.11,1.8,3.15,2.71,2.06,1.8,3.1,2.69,2.08,1.82,3.15,2.7c.11-.08.21-.13.29-.2l2.45-2,2.71-2.3c.72-.61,1.42-1.23,2.13-1.84l2.25-1.95c.39-.33.78-.67,1.16-1l2.57-2.28,2.69-2.4c.71-.64,1.43-1.29,2.14-2l3-2.72,3.35-3.11c.92-.86,1.86-1.72,2.78-2.6l1.33-1.27,2.69-2.59c.48-.45,1-.91,1.42-1.37l3.44-3.38,4.63-4.61c1-1,2-2,2.94-3s1.89-2,2.82-2.93,1.81-1.87,2.69-2.82,1.64-1.76,2.46-2.64c.38-.42.79-.83,1.17-1.25,1-1.14,2.08-2.27,3.11-3.41s2-2.19,3-3.3c.75-.83,1.49-1.67,2.23-2.51.88-1,1.75-2,2.62-3.05l1.66-1.94,1.51-1.8,1.36-1.65,1.44-1.75.71-.88a3.92,3.92,0,0,0,.25-.32,1.72,1.72,0,0,0-.3-.47c-.83-1.05-1.66-2.11-2.48-3.17l-2.39-3-1.9-2.44L520-309.31c-.65-.82-1.29-1.66-1.94-2.48l-1.5-1.91-.26-.36c.05-.17.19-.22.29-.31a3.84,3.84,0,0,0,1.5-3.18,3.34,3.34,0,0,0-.54-1.83.2.2,0,0,1,0-.11l-1.31-1.31A.5.5,0,0,1,516.08-320.82Z" transform="translate(131.43 464.39)"/><polygon class="cls-10" points="635.76 670.38 622.76 647.87 635.76 625.35 661.76 625.35 674.76 647.87 661.76 670.38 635.76 670.38"/><polygon class="cls-15" points="639.74 663.5 630.71 647.87 639.74 632.23 657.79 632.23 666.81 647.87 657.79 663.5 639.74 663.5"/><rect class="cls-20" x="297.14" y="143.6" width="50.24" height="50.24" transform="translate(106.52 741.68) rotate(-45)"/><rect class="cls-13" x="309.44" y="155.9" width="25.64" height="25.64" transform="translate(106.52 741.69) rotate(-45)"/><rect class="cls-9" x="555.63" y="54.59" width="42.21" height="42.21" transform="translate(246.83 894.38) rotate(-45)"/><rect class="cls-13" x="565.96" y="64.92" width="21.55" height="21.55" transform="translate(246.84 894.39) rotate(-45)"/><rect class="cls-12" x="136.94" y="-180.44" width="50.24" height="50.24" transform="translate(288.73 533.49) rotate(-45)"/><rect class="cls-13" x="149.24" y="-168.14" width="25.64" height="25.64" transform="translate(288.73 533.49) rotate(-45)"/><polygon class="cls-14" points="337 238.55 347.79 227.76 337 216.97 337 201.71 321.74 201.71 310.95 190.92 300.16 201.71 284.9 201.71 284.9 216.97 274.1 227.76 284.9 238.55 284.9 253.81 300.15 253.81 310.95 264.6 321.74 253.81 337 253.81 337 238.55"/><polygon class="cls-15" points="329.45 235.43 337.11 227.76 329.45 220.09 329.45 209.26 318.61 209.26 310.95 201.59 303.28 209.26 292.45 209.26 292.45 220.09 284.78 227.76 292.45 235.43 292.45 246.26 303.28 246.26 310.95 253.93 318.61 246.26 329.45 246.26 329.45 235.43"/><rect class="cls-6" x="629.63" y="498.38" width="39.42" height="107.52"/><rect class="cls-13" x="635.15" y="510.02" width="28.37" height="84.24"/><rect class="cls-21" x="254.08" y="99.44" width="50.5" height="2.36" transform="translate(142.1 691.37) rotate(-45)"/><polygon class="cls-7" points="426.72 549.04 448.63 570.95 436.62 570.55 436.22 583.35 414.32 561.45 426.72 549.04"/><rect class="cls-22" x="229.43" y="86.56" width="15.42" height="15.17" transform="translate(134.32 659.65) rotate(-45)"/><rect class="cls-22" x="269.01" y="126.14" width="15.42" height="15.17" transform="translate(117.93 699.23) rotate(-45)"/><rect class="cls-22" x="249.22" y="106.35" width="15.42" height="15.17" transform="translate(126.12 679.44) rotate(-45)"/><rect class="cls-23" x="198.13" y="117.88" width="60.95" height="50.5" transform="translate(97.18 667.96) rotate(-45)"/><rect class="cls-6" x="243.21" y="85.48" width="13.18" height="71.15" transform="translate(119 676.49) rotate(-45)"/><rect class="cls-6" x="203.17" y="130.54" width="6.72" height="66.17" transform="translate(76.22 658.36) rotate(-45)"/><rect class="cls-16" x="586.88" y="-103.37" width="43.75" height="50.33" transform="translate(365.03 871.94) rotate(-45)"/><path class="cls-17" d="M591.82-110.54a1.23,1.23,0,0,0-1.75,0,1.24,1.24,0,0,0,0,1.75,1.24,1.24,0,0,0,1.75,0A1.24,1.24,0,0,0,591.82-110.54Z" transform="translate(131.43 464.39)"/><path class="cls-3" d="M655.72-69.84a3.83,3.83,0,0,0,0-5.41l-49.24-49.23a3.81,3.81,0,0,0-5.41,0l-42,42s-5.42,2.63,23.3,31.35,31.35,23.29,31.35,23.29Zm-65.65-38.94a1.24,1.24,0,0,1,0-1.75,1.23,1.23,0,0,1,1.75,0,1.24,1.24,0,0,1,0,1.76A1.24,1.24,0,0,1,590.07-108.78Zm21,63.84L575.49-80.53l30.94-30.94L642-75.88Z" transform="translate(131.43 464.39)"/><path class="cls-25" d="M559.48,20a.88.88,0,1,0,.85.91A.88.88,0,0,0,559.48,20Z" transform="translate(131.43 464.39)"/><path class="cls-25" d="M562.69,20.13a.88.88,0,0,0-.06,1.76.88.88,0,0,0,.06-1.76Z" transform="translate(131.43 464.39)"/><path class="cls-25" d="M566,17.06a.88.88,0,1,0-.06,1.76.9.9,0,0,0,.91-.85A.88.88,0,0,0,566,17.06Z" transform="translate(131.43 464.39)"/><path class="cls-25" d="M562.81,16.94a.88.88,0,1,0,.85.91A.9.9,0,0,0,562.81,16.94Z" transform="translate(131.43 464.39)"/><path class="cls-25" d="M562.92,13.76a.88.88,0,0,0-.91.84.87.87,0,0,0,.85.91.88.88,0,1,0,.06-1.75Z" transform="translate(131.43 464.39)"/><path class="cls-25" d="M559.72,13.64a.88.88,0,0,0-.07,1.76.88.88,0,0,0,.07-1.76Z" transform="translate(131.43 464.39)"/><path class="cls-25" d="M559.6,16.83a.88.88,0,1,0-.06,1.76.88.88,0,1,0,.06-1.76Z" transform="translate(131.43 464.39)"/><path class="cls-25" d="M556.39,16.72a.88.88,0,1,0,.84.91A.87.87,0,0,0,556.39,16.72Z" transform="translate(131.43 464.39)"/><path class="cls-25" d="M553.29,13.41a.88.88,0,0,0-.06,1.76.88.88,0,0,0,.06-1.76Z" transform="translate(131.43 464.39)"/><path class="cls-25" d="M556.5,13.53a.88.88,0,1,0,.85.91A.88.88,0,0,0,556.5,13.53Z" transform="translate(131.43 464.39)"/><path class="cls-25" d="M559.82,10.45a.88.88,0,1,0,.85.91A.88.88,0,0,0,559.82,10.45Z" transform="translate(131.43 464.39)"/><path class="cls-25" d="M556.61,10.34a.88.88,0,1,0,.85.91A.88.88,0,0,0,556.61,10.34Z" transform="translate(131.43 464.39)"/><path class="cls-25" d="M553.4,10.22a.88.88,0,1,0-.06,1.76.88.88,0,1,0,.06-1.76Z" transform="translate(131.43 464.39)"/><path class="cls-25" d="M553.52,7a.88.88,0,0,0-.06,1.76.87.87,0,0,0,.9-.85A.88.88,0,0,0,553.52,7Z" transform="translate(131.43 464.39)"/><path class="cls-25" d="M556.73,7.15a.88.88,0,1,0,.85.91A.89.89,0,0,0,556.73,7.15Z" transform="translate(131.43 464.39)"/><path class="cls-25" d="M556.84,4a.88.88,0,1,0,.85.9A.89.89,0,0,0,556.84,4Z" transform="translate(131.43 464.39)"/><path class="cls-25" d="M560.05,4.07a.9.9,0,0,0-.91.85.88.88,0,1,0,.91-.85Z" transform="translate(131.43 464.39)"/><path class="cls-25" d="M559.94,7.26a.88.88,0,1,0,.85.91A.9.9,0,0,0,559.94,7.26Z" transform="translate(131.43 464.39)"/><path class="cls-25" d="M563.15,7.38a.88.88,0,1,0,.85.91A.87.87,0,0,0,563.15,7.38Z" transform="translate(131.43 464.39)"/><path class="cls-25" d="M563,10.56a.88.88,0,1,0,.84.91A.88.88,0,0,0,563,10.56Z" transform="translate(131.43 464.39)"/><path class="cls-25" d="M566.24,10.68a.88.88,0,1,0-.06,1.75.88.88,0,1,0,.06-1.75Z" transform="translate(131.43 464.39)"/><path class="cls-25" d="M566.13,13.86a.88.88,0,0,0-.9.86.86.86,0,0,0,.84.9.87.87,0,0,0,.91-.84A.88.88,0,0,0,566.13,13.86Z" transform="translate(131.43 464.39)"/><path class="cls-25" d="M569.34,14a.88.88,0,1,0-.06,1.75.88.88,0,1,0,.06-1.75Z" transform="translate(131.43 464.39)"/><path class="cls-25" d="M569.46,10.79a.88.88,0,1,0,.84.91A.88.88,0,0,0,569.46,10.79Z" transform="translate(131.43 464.39)"/><path class="cls-25" d="M569.57,7.6a.88.88,0,1,0,.85.91A.89.89,0,0,0,569.57,7.6Z" transform="translate(131.43 464.39)"/><path class="cls-25" d="M566.36,7.49a.88.88,0,1,0-.06,1.76.89.89,0,0,0,.91-.85A.88.88,0,0,0,566.36,7.49Z" transform="translate(131.43 464.39)"/><path class="cls-25" d="M566.47,4.3a.88.88,0,1,0,.85.91A.89.89,0,0,0,566.47,4.3Z" transform="translate(131.43 464.39)"/><path class="cls-25" d="M563.26,4.18a.88.88,0,0,0-.9.85.87.87,0,0,0,.84.91.88.88,0,0,0,.06-1.76Z" transform="translate(131.43 464.39)"/><path class="cls-25" d="M563.31,2.75A.88.88,0,1,0,563.37,1a.88.88,0,1,0-.06,1.75Z" transform="translate(131.43 464.39)"/><path class="cls-25" d="M560.17.88a.88.88,0,1,0,.84.91A.88.88,0,0,0,560.17.88Z" transform="translate(131.43 464.39)"/><path class="cls-25" d="M548.06-50.9a2.69,2.69,0,0,0,0-3.79,2.65,2.65,0,0,0-1.9-.79,2.63,2.63,0,0,0-1.89.79,2.64,2.64,0,0,0-.79,1.89,2.75,2.75,0,0,0,.79,1.9A2.69,2.69,0,0,0,548.06-50.9Z" transform="translate(131.43 464.39)"/><path class="cls-26" d="M584.85-37a2.91,2.91,0,0,0,0-4.12L571.42-54.53a2.87,2.87,0,0,0-2.06-.85,2.83,2.83,0,0,0-2.06.85,2.91,2.91,0,0,0,0,4.12L580.73-37A2.91,2.91,0,0,0,584.85-37Z" transform="translate(131.43 464.39)"/><path class="cls-3" d="M593.25-9.5a5.72,5.72,0,0,0,0-8.11,5.73,5.73,0,0,0-8.11,0,5.73,5.73,0,0,0,0,8.11A5.73,5.73,0,0,0,593.25-9.5Z" transform="translate(131.43 464.39)"/><path class="cls-3" d="M577.87-25.63a5.73,5.73,0,0,0-8.11,0,5.73,5.73,0,0,0,0,8.11,5.73,5.73,0,0,0,8.11,0A5.73,5.73,0,0,0,577.87-25.63Z" transform="translate(131.43 464.39)"/><path class="cls-3" d="M556.56-48.22,552-52.8l4.58-4.57a1.28,1.28,0,0,0,0-1.81l-4-4a1.27,1.27,0,0,0-1.8,0l-4.58,4.57-4.57-4.57a1.28,1.28,0,0,0-1.81,0l-4,4a1.27,1.27,0,0,0,0,1.81l4.57,4.58-4.57,4.57a1.27,1.27,0,0,0,0,1.8l4,4a1.28,1.28,0,0,0,1.81,0L546.16-47l4.58,4.58a1.27,1.27,0,0,0,1.8,0l4-4A1.27,1.27,0,0,0,556.56-48.22ZM543.48-52.8a2.64,2.64,0,0,1,.79-1.89,2.63,2.63,0,0,1,1.89-.79,2.65,2.65,0,0,1,1.9.79,2.69,2.69,0,0,1,0,3.79,2.69,2.69,0,0,1-3.79,0A2.75,2.75,0,0,1,543.48-52.8Z" transform="translate(131.43 464.39)"/><path class="cls-7" d="M569.16,27.21l97-97a3.81,3.81,0,0,0,0-5.41l-60-60.05a3.83,3.83,0,0,0-5.41,0l-97,97S493-27.92,525.92,5,569.16,27.21,569.16,27.21ZM552.54-42.4a1.27,1.27,0,0,1-1.8,0L546.16-47l-4.57,4.58a1.28,1.28,0,0,1-1.81,0l-4-4a1.27,1.27,0,0,1,0-1.8l4.57-4.57-4.57-4.58a1.27,1.27,0,0,1,0-1.81l4-4a1.28,1.28,0,0,1,1.81,0l4.57,4.57,4.58-4.57a1.27,1.27,0,0,1,1.8,0l4,4a1.28,1.28,0,0,1,0,1.81L552-52.8l4.58,4.58a1.27,1.27,0,0,1,0,1.8Zm14.76-8a2.91,2.91,0,0,1,0-4.12,2.83,2.83,0,0,1,2.06-.85,2.87,2.87,0,0,1,2.06.85L584.85-41.1a2.91,2.91,0,0,1,0,4.12,2.91,2.91,0,0,1-4.12,0Zm2.46,32.89a5.73,5.73,0,0,1,0-8.11,5.73,5.73,0,0,1,8.11,0,5.73,5.73,0,0,1,0,8.11A5.73,5.73,0,0,1,569.76-17.52ZM553.46,8.79a.88.88,0,1,1,.9-.85A.87.87,0,0,1,553.46,8.79Zm3.32-3.08A.88.88,0,0,1,556.84,4a.89.89,0,0,1,.85.9A.88.88,0,0,1,556.78,5.71Zm3.32-3.07a.88.88,0,1,1,.91-.85A.87.87,0,0,1,560.1,2.64ZM553.34,12a.88.88,0,1,1,.06-1.76.88.88,0,1,1-.06,1.76Zm3.33-3.08a.88.88,0,1,1,.06-1.75.88.88,0,1,1-.06,1.75ZM560,5.83a.88.88,0,0,1-.85-.91.9.9,0,0,1,.91-.85A.88.88,0,1,1,560,5.83ZM563.37,1a.88.88,0,1,1-.06,1.75A.88.88,0,1,1,563.37,1ZM553.23,15.17a.88.88,0,0,1,.06-1.76.88.88,0,0,1-.06,1.76Zm3.32-3.08a.88.88,0,1,1,.91-.84A.87.87,0,0,1,556.55,12.09ZM559.88,9a.88.88,0,0,1,.06-1.76.9.9,0,0,1,.85.91A.88.88,0,0,1,559.88,9Zm3.32-3.08a.87.87,0,0,1-.84-.91.88.88,0,1,1,.84.91ZM585.14-9.5a5.73,5.73,0,0,1,0-8.11,5.73,5.73,0,0,1,8.11,0,5.72,5.72,0,0,1,0,8.11A5.73,5.73,0,0,1,585.14-9.5ZM569.51,9.36a.88.88,0,0,1,.06-1.76.88.88,0,0,1-.06,1.76Zm-3.1-3.31a.88.88,0,1,1,.06-1.75.88.88,0,1,1-.06,1.75Zm-10,9.23a.88.88,0,1,1,.91-.84A.88.88,0,0,1,556.44,15.28Zm3.32-3.07a.88.88,0,0,1,.06-1.76.88.88,0,0,1-.06,1.76Zm3.33-3.08a.88.88,0,1,1,.91-.84A.88.88,0,0,1,563.09,9.13Zm-6.77,9.34a.88.88,0,1,1,.91-.84A.87.87,0,0,1,556.32,18.47Zm3.33-3.07a.88.88,0,0,1,.07-1.76.88.88,0,0,1-.07,1.76ZM563,12.32a.88.88,0,1,1,.91-.85A.87.87,0,0,1,563,12.32Zm3.33-3.07a.88.88,0,1,1,.91-.85A.88.88,0,0,1,566.3,9.25Zm-6.76,9.34a.88.88,0,1,1,.91-.85A.88.88,0,0,1,559.54,18.59Zm3.32-3.08a.87.87,0,0,1-.85-.91.88.88,0,1,1,.85.91Zm3.32-3.08a.88.88,0,1,1,.06-1.75.88.88,0,1,1-.06,1.75Zm-6.76,9.34a.88.88,0,1,1,.91-.84A.88.88,0,0,1,559.42,21.77Zm3.33-3.07a.88.88,0,0,1,.06-1.76.9.9,0,0,1,.85.91A.88.88,0,0,1,562.75,18.7Zm3.32-3.08a.86.86,0,0,1-.84-.9.88.88,0,1,1,.84.9Zm3.32-3.07a.88.88,0,1,1,.91-.85A.87.87,0,0,1,569.39,12.55Zm-6.76,9.34a.88.88,0,1,1,.91-.85A.88.88,0,0,1,562.63,21.89ZM566,18.82a.88.88,0,1,1,.91-.85A.9.9,0,0,1,566,18.82Zm3.32-3.09a.88.88,0,1,1,.91-.84A.88.88,0,0,1,569.28,15.73Zm13.09-66.86c-28.72-28.72-23.3-31.35-23.3-31.35l42-42a3.81,3.81,0,0,1,5.41,0l49.24,49.23a3.83,3.83,0,0,1,0,5.41l-42,42S611.09-22.41,582.37-51.13Z" transform="translate(131.43 464.39)"/><rect class="cls-7" x="488.05" y="363.38" width="14.77" height="14.77"/><rect class="cls-7" x="488.05" y="339.03" width="14.77" height="14.77"/><rect class="cls-7" x="488.05" y="387.73" width="14.77" height="14.77"/><rect class="cls-7" x="488.05" y="412.07" width="14.77" height="14.77"/><rect class="cls-7" x="488.05" y="436.42" width="14.77" height="14.77"/><rect class="cls-12" x="359.08" y="151.48" width="14.77" height="14.77"/><rect class="cls-12" x="359.08" y="127.13" width="14.77" height="14.77"/><rect class="cls-12" x="359.08" y="175.82" width="14.77" height="14.77"/><rect class="cls-12" x="359.08" y="200.17" width="14.77" height="14.77"/><rect class="cls-12" x="359.08" y="224.51" width="14.77" height="14.77"/><rect class="cls-8" x="594.4" y="579.77" width="14.77" height="14.77"/><rect class="cls-8" x="594.4" y="555.42" width="14.77" height="14.77"/><rect class="cls-8" x="594.4" y="604.12" width="14.77" height="14.77"/><rect class="cls-8" x="594.4" y="628.46" width="14.77" height="14.77"/><rect class="cls-8" x="594.4" y="652.81" width="14.77" height="14.77"/><path class="cls-6" d="M378.55-321.81a6.56,6.56,0,0,1-6.55,6.56,6.56,6.56,0,0,1-6.55-6.56,6.55,6.55,0,0,1,6.55-6.55A6.55,6.55,0,0,1,378.55-321.81Z" transform="translate(131.43 464.39)"/><path class="cls-7" d="M364.73-305.51a6.55,6.55,0,0,1-6.55,6.55,6.56,6.56,0,0,1-6.56-6.55,6.56,6.56,0,0,1,6.56-6.56A6.56,6.56,0,0,1,364.73-305.51Z" transform="translate(131.43 464.39)"/><path class="cls-8" d="M392.38-305.51a6.56,6.56,0,0,1-6.56,6.55,6.55,6.55,0,0,1-6.55-6.55,6.56,6.56,0,0,1,6.55-6.56A6.56,6.56,0,0,1,392.38-305.51Z" transform="translate(131.43 464.39)"/><path class="cls-9" d="M378.55-292.4a6.55,6.55,0,0,1-6.55,6.55,6.55,6.55,0,0,1-6.55-6.55A6.56,6.56,0,0,1,372-299,6.56,6.56,0,0,1,378.55-292.4Z" transform="translate(131.43 464.39)"/><path class="cls-6" d="M175.44,84.26a6.56,6.56,0,1,1-6.55-6.56A6.55,6.55,0,0,1,175.44,84.26Z" transform="translate(131.43 464.39)"/><path class="cls-7" d="M161.62,100.55A6.56,6.56,0,1,1,155.06,94,6.56,6.56,0,0,1,161.62,100.55Z" transform="translate(131.43 464.39)"/><path class="cls-8" d="M189.27,100.55A6.56,6.56,0,1,1,182.71,94,6.56,6.56,0,0,1,189.27,100.55Z" transform="translate(131.43 464.39)"/><path class="cls-9" d="M175.44,113.66a6.56,6.56,0,1,1-6.55-6.56A6.55,6.55,0,0,1,175.44,113.66Z" transform="translate(131.43 464.39)"/><path class="cls-3" d="M567.31-144H554.55v-12.78A2.51,2.51,0,0,0,552-159.3H540.83a2.51,2.51,0,0,0-2.51,2.51V-144H525.55A2.51,2.51,0,0,0,523-141.5v11.21a2.51,2.51,0,0,0,2.52,2.51h12.77V-115a2.51,2.51,0,0,0,2.51,2.52H552a2.51,2.51,0,0,0,2.51-2.52v-12.77h12.76a2.5,2.5,0,0,0,2.52-2.51V-141.5A2.5,2.5,0,0,0,567.31-144Zm-24.62,11.85a5.3,5.3,0,0,1-1.54-3.74,5.34,5.34,0,0,1,1.54-3.74,5.3,5.3,0,0,1,3.74-1.55,5.29,5.29,0,0,1,5.28,5.29,5.27,5.27,0,0,1-5.28,5.28A5.34,5.34,0,0,1,542.69-132.16Z" transform="translate(131.43 464.39)"/><path class="cls-3" d="M385.47,104.34H372.71V91.57a2.52,2.52,0,0,0-2.51-2.52H359a2.51,2.51,0,0,0-2.51,2.52v12.77H343.71a2.51,2.51,0,0,0-2.52,2.51v11.21a2.52,2.52,0,0,0,2.52,2.52h12.77v12.76a2.51,2.51,0,0,0,2.51,2.52H370.2a2.51,2.51,0,0,0,2.51-2.52V120.58h12.76a2.52,2.52,0,0,0,2.52-2.52V106.85A2.51,2.51,0,0,0,385.47,104.34Zm-24.62,11.85a5.24,5.24,0,0,1-1.55-3.73,5.27,5.27,0,1,1,1.55,3.73Z" transform="translate(131.43 464.39)"/><circle class="cls-27" cx="283.03" cy="21.72" r="31.96" transform="translate(176.79 641.31) rotate(-37.53)"/><path class="cls-28" d="M300.6,4.15a24.85,24.85,0,1,1-35.14,0,24.89,24.89,0,0,1,35.14,0" transform="translate(131.43 464.39)"/><polygon class="cls-27" points="425.98 474.59 422.37 485.25 429.1 494.27 417.85 494.12 411.35 503.31 408.01 492.56 397.26 489.22 406.45 482.72 406.31 471.47 415.32 478.2 425.98 474.59"/><circle class="cls-27" cx="447.78" cy="-160" r="36.78" transform="translate(335.5 712.69) rotate(-39.5)"/><path class="cls-28" d="M468-180.21a28.61,28.61,0,0,1,0,40.43,28.62,28.62,0,0,1-40.42,0,28.61,28.61,0,0,1,0-40.43,28.6,28.6,0,0,1,40.42,0" transform="translate(131.43 464.39)"/><polygon class="cls-27" points="592.47 291.14 588.31 303.4 596.05 313.78 583.11 313.61 575.63 324.19 571.79 311.82 559.42 307.98 569.99 300.5 569.83 287.55 580.21 295.3 592.47 291.14"/><path class="cls-29" d="M467.88-184.55a31.78,31.78,0,0,0-42.54,2.11,31.79,31.79,0,0,0-2.12,42.55Z" transform="translate(131.43 464.39)"/><circle class="cls-27" cx="458.47" cy="17.5" r="33.28" transform="translate(241.29 780.17) rotate(-42.74)"/><path class="cls-28" d="M476.76-.79a25.87,25.87,0,1,1-36.59,0,25.9,25.9,0,0,1,36.59,0" transform="translate(131.43 464.39)"/><polygon class="cls-27" points="601.9 469.9 598.13 481 605.14 490.39 593.42 490.24 586.66 499.81 583.18 488.62 571.99 485.14 581.56 478.37 581.41 466.65 590.8 473.66 601.9 469.9"/><path class="cls-30" d="M467.21-73.24a18.85,18.85,0,0,0-14.55-5.42,18.83,18.83,0,0,0-5.43-14.55c-7.52-7.53-20-7.24-27.89.63a28,28,0,0,0-5.12,7.09,33.74,33.74,0,0,0-1.65,3.79c-6.61,18.09,1.2,41.92,1.2,41.92S437.6-32,455.7-38.58a40.59,40.59,0,0,0,3.79-1.65,29.52,29.52,0,0,0,7.08-5.11c7.88-7.88,8.17-20.37.64-27.9" transform="translate(131.43 464.39)"/><path class="cls-30" d="M152-65.22a18.8,18.8,0,0,0-14.55-5.43,18.81,18.81,0,0,0-5.43-14.55c-7.52-7.53-20-7.24-27.89.64a27.86,27.86,0,0,0-5.11,7.08,33.1,33.1,0,0,0-1.66,3.79c-6.6,18.1,1.21,41.93,1.21,41.93s23.83,7.8,41.92,1.2c0,0,2.39-.91,3.79-1.65a29.81,29.81,0,0,0,7.09-5.12c7.87-7.88,8.16-20.37.63-27.89" transform="translate(131.43 464.39)"/><polygon class="cls-24" points="108.84 328.53 72.01 291.69 108.84 254.85 108.84 328.53"/><polygon class="cls-18" points="18.23 217.65 46.57 201.29 74.91 217.65 74.91 250.38 46.57 266.74 18.23 250.38 18.23 217.65"/><polygon class="cls-10" points="69.74 320.79 82.2 346.02 110.04 350.07 89.89 369.71 94.65 397.44 69.74 384.35 44.84 397.44 49.6 369.71 29.45 350.07 57.29 346.02 69.74 320.79"/><polygon class="cls-10" points="170.33 396.43 157.34 373.92 170.33 351.4 196.33 351.4 209.33 373.92 196.33 396.43 170.33 396.43"/><polygon class="cls-15" points="174.31 389.55 165.28 373.92 174.31 358.28 192.36 358.28 201.38 373.92 192.36 389.55 174.31 389.55"/><polygon class="cls-19" points="155.61 665.38 146.59 649.74 155.61 634.11 173.66 634.11 182.69 649.74 173.66 665.38 155.61 665.38"/><rect class="cls-9" x="90.2" y="-219.36" width="42.21" height="42.21" transform="translate(304.22 485.03) rotate(-45)"/><rect class="cls-13" x="100.53" y="-209.03" width="21.55" height="21.55" transform="translate(304.23 485.02) rotate(-45)"/><rect class="cls-6" x="164.2" y="224.43" width="39.42" height="107.52"/><rect class="cls-13" x="169.72" y="236.07" width="28.37" height="84.24"/><path class="cls-8" d="M18.16-363.59v-8.67H9.71v-8.67H-7.42v8.67h-8.24v-8.67H-32.79v8.67h-8.45v8.67H-49.7v26h8.46v17.33h.14v8.67h16.84v-8.67h-8.31v-8.67H9.49v8.46H1v8.67H18.09v-8.46h.07v-17.33h8.46v-26ZM18-346.26H1.25v-8.67H18Zm-59,0v-8.67h16.7v8.67H-41Z" transform="translate(131.43 464.39)"/><rect class="cls-16" x="121.45" y="-377.32" width="43.75" height="50.33" transform="translate(422.42 462.6) rotate(-45)"/><path class="cls-3" d="M190.29-343.79a3.83,3.83,0,0,0,0-5.41l-49.24-49.23a3.8,3.8,0,0,0-5.4,0l-42,42s-5.42,2.63,23.3,31.35,31.35,23.29,31.35,23.29Zm-65.65-38.94a1.24,1.24,0,0,1,0-1.75,1.23,1.23,0,0,1,1.75,0,1.24,1.24,0,0,1,0,1.76A1.24,1.24,0,0,1,124.64-382.73Zm21,63.84-35.59-35.59L141-385.42l35.6,35.59Z" transform="translate(131.43 464.39)"/><path class="cls-25" d="M94.05-253.93a.89.89,0,0,0-.91.85.88.88,0,0,0,.85.9.87.87,0,0,0,.91-.84A.88.88,0,0,0,94.05-253.93Z" transform="translate(131.43 464.39)"/><path class="cls-25" d="M97.27-253.82a.88.88,0,0,0-.91.85.87.87,0,0,0,.84.91.88.88,0,0,0,.91-.85A.88.88,0,0,0,97.27-253.82Z" transform="translate(131.43 464.39)"/><path class="cls-25" d="M100.59-256.89a.88.88,0,0,0-.91.85.89.89,0,0,0,.85.91.89.89,0,0,0,.91-.85A.88.88,0,0,0,100.59-256.89Z" transform="translate(131.43 464.39)"/><path class="cls-25" d="M97.38-257a.89.89,0,0,0-.91.85.88.88,0,0,0,.85.91.88.88,0,0,0,.91-.85A.9.9,0,0,0,97.38-257Z" transform="translate(131.43 464.39)"/><path class="cls-25" d="M97.5-260.19a.87.87,0,0,0-.91.84.86.86,0,0,0,.84.91.88.88,0,0,0,.91-.85A.86.86,0,0,0,97.5-260.19Z" transform="translate(131.43 464.39)"/><path class="cls-25" d="M94.29-260.31a.88.88,0,0,0-.91.85.88.88,0,0,0,.84.91.89.89,0,0,0,.91-.85A.89.89,0,0,0,94.29-260.31Z" transform="translate(131.43 464.39)"/><path class="cls-25" d="M94.17-257.12a.88.88,0,0,0-.91.85.88.88,0,0,0,.85.91.89.89,0,0,0,.91-.85A.88.88,0,0,0,94.17-257.12Z" transform="translate(131.43 464.39)"/><path class="cls-25" d="M91-257.23a.87.87,0,0,0-.91.84.88.88,0,0,0,.84.91.88.88,0,0,0,.92-.84A.88.88,0,0,0,91-257.23Z" transform="translate(131.43 464.39)"/><path class="cls-25" d="M87.86-260.54a.9.9,0,0,0-.91.85.89.89,0,0,0,.85.91.88.88,0,0,0,.91-.85A.89.89,0,0,0,87.86-260.54Z" transform="translate(131.43 464.39)"/><path class="cls-25" d="M91.08-260.42a.88.88,0,0,0-.92.84.88.88,0,0,0,.85.91.88.88,0,0,0,.91-.84A.87.87,0,0,0,91.08-260.42Z" transform="translate(131.43 464.39)"/><path class="cls-25" d="M94.4-263.5a.87.87,0,0,0-.91.85.88.88,0,0,0,.84.91.88.88,0,0,0,.91-.85A.87.87,0,0,0,94.4-263.5Z" transform="translate(131.43 464.39)"/><path class="cls-25" d="M91.18-263.61a.86.86,0,0,0-.9.84.87.87,0,0,0,.84.91.87.87,0,0,0,.91-.84A.88.88,0,0,0,91.18-263.61Z" transform="translate(131.43 464.39)"/><path class="cls-25" d="M88-263.73a.88.88,0,0,0-.91.85.88.88,0,0,0,.84.91.87.87,0,0,0,.91-.85A.87.87,0,0,0,88-263.73Z" transform="translate(131.43 464.39)"/><path class="cls-25" d="M88.09-266.92a.89.89,0,0,0-.91.85.88.88,0,0,0,.85.91.88.88,0,0,0,.91-.85A.9.9,0,0,0,88.09-266.92Z" transform="translate(131.43 464.39)"/><path class="cls-25" d="M91.3-266.8a.87.87,0,0,0-.91.84.87.87,0,0,0,.85.91.88.88,0,0,0,.91-.84A.88.88,0,0,0,91.3-266.8Z" transform="translate(131.43 464.39)"/><path class="cls-25" d="M91.41-270a.87.87,0,0,0-.9.85.86.86,0,0,0,.84.9.88.88,0,0,0,.91-.85A.89.89,0,0,0,91.41-270Z" transform="translate(131.43 464.39)"/><path class="cls-25" d="M94.62-269.88a.88.88,0,0,0-.9.85.87.87,0,0,0,.84.91.88.88,0,0,0,.91-.85A.88.88,0,0,0,94.62-269.88Z" transform="translate(131.43 464.39)"/><path class="cls-25" d="M94.51-266.69a.89.89,0,0,0-.91.85.88.88,0,0,0,.85.91.88.88,0,0,0,.91-.85A.89.89,0,0,0,94.51-266.69Z" transform="translate(131.43 464.39)"/><path class="cls-25" d="M97.72-266.57a.87.87,0,0,0-.91.84.89.89,0,0,0,.85.91.87.87,0,0,0,.91-.84A.88.88,0,0,0,97.72-266.57Z" transform="translate(131.43 464.39)"/><path class="cls-25" d="M97.61-263.39a.88.88,0,0,0-.91.85.87.87,0,0,0,.84.91.88.88,0,0,0,.92-.85A.9.9,0,0,0,97.61-263.39Z" transform="translate(131.43 464.39)"/><path class="cls-25" d="M100.81-263.27a.87.87,0,0,0-.9.85.87.87,0,0,0,.85.9.86.86,0,0,0,.9-.84A.88.88,0,0,0,100.81-263.27Z" transform="translate(131.43 464.39)"/><path class="cls-25" d="M100.7-260.09a.89.89,0,0,0-.9.86.86.86,0,0,0,.84.9.87.87,0,0,0,.91-.84A.88.88,0,0,0,100.7-260.09Z" transform="translate(131.43 464.39)"/><path class="cls-25" d="M103.91-260a.87.87,0,0,0-.9.85.86.86,0,0,0,.84.9.87.87,0,0,0,.91-.84A.88.88,0,0,0,103.91-260Z" transform="translate(131.43 464.39)"/><path class="cls-25" d="M104-263.16a.88.88,0,0,0-.91.85.88.88,0,0,0,.85.91.88.88,0,0,0,.91-.85A.9.9,0,0,0,104-263.16Z" transform="translate(131.43 464.39)"/><path class="cls-25" d="M104.15-266.35a.88.88,0,0,0-.91.85.87.87,0,0,0,.84.91.89.89,0,0,0,.91-.85A.89.89,0,0,0,104.15-266.35Z" transform="translate(131.43 464.39)"/><path class="cls-25" d="M100.93-266.46a.88.88,0,0,0-.91.85.89.89,0,0,0,.85.91.89.89,0,0,0,.91-.85A.88.88,0,0,0,100.93-266.46Z" transform="translate(131.43 464.39)"/><path class="cls-25" d="M101-269.65a.89.89,0,0,0-.91.85.88.88,0,0,0,.85.9.87.87,0,0,0,.91-.84A.88.88,0,0,0,101-269.65Z" transform="translate(131.43 464.39)"/><path class="cls-25" d="M97.83-269.77a.89.89,0,0,0-.9.85.87.87,0,0,0,.84.91.88.88,0,0,0,.91-.85A.88.88,0,0,0,97.83-269.77Z" transform="translate(131.43 464.39)"/><path class="cls-25" d="M97.88-271.2a.87.87,0,0,0,.91-.84.87.87,0,0,0-.84-.91.88.88,0,0,0-.92.84A.89.89,0,0,0,97.88-271.2Z" transform="translate(131.43 464.39)"/><path class="cls-25" d="M94.74-273.07a.88.88,0,0,0-.91.85.88.88,0,0,0,.85.91.87.87,0,0,0,.9-.85A.88.88,0,0,0,94.74-273.07Z" transform="translate(131.43 464.39)"/><path class="cls-25" d="M82.63-324.85a2.68,2.68,0,0,0,0-3.79,2.67,2.67,0,0,0-1.89-.79,2.69,2.69,0,0,0-1.9.79,2.73,2.73,0,0,0-.79,1.89,2.75,2.75,0,0,0,.79,1.9A2.69,2.69,0,0,0,82.63-324.85Z" transform="translate(131.43 464.39)"/><path class="cls-26" d="M119.42-310.93a2.9,2.9,0,0,0,0-4.11L106-328.48a2.87,2.87,0,0,0-2.06-.85,2.85,2.85,0,0,0-2.06.85,2.91,2.91,0,0,0,0,4.12l13.43,13.43A2.91,2.91,0,0,0,119.42-310.93Z" transform="translate(131.43 464.39)"/><path class="cls-3" d="M127.82-283.45a5.72,5.72,0,0,0,0-8.11,5.72,5.72,0,0,0-8.1,0,5.73,5.73,0,0,0,0,8.11A5.73,5.73,0,0,0,127.82-283.45Z" transform="translate(131.43 464.39)"/><path class="cls-3" d="M112.44-299.58a5.73,5.73,0,0,0-8.11,0,5.73,5.73,0,0,0,0,8.11,5.73,5.73,0,0,0,8.11,0A5.73,5.73,0,0,0,112.44-299.58Z" transform="translate(131.43 464.39)"/><path class="cls-3" d="M91.13-322.17l-4.57-4.58,4.57-4.57a1.28,1.28,0,0,0,0-1.81l-4-4a1.28,1.28,0,0,0-1.81,0l-4.57,4.57-4.58-4.57a1.27,1.27,0,0,0-1.8,0l-4,4a1.28,1.28,0,0,0,0,1.81l4.58,4.58-4.58,4.57a1.27,1.27,0,0,0,0,1.8l4,4a1.27,1.27,0,0,0,1.8,0l4.57-4.57,4.58,4.57a1.27,1.27,0,0,0,1.8,0l4-4A1.27,1.27,0,0,0,91.13-322.17Zm-13.08-4.58a2.73,2.73,0,0,1,.79-1.89,2.69,2.69,0,0,1,1.9-.79,2.67,2.67,0,0,1,1.89.79,2.68,2.68,0,0,1,0,3.79,2.69,2.69,0,0,1-3.79,0A2.75,2.75,0,0,1,78.05-326.75Z" transform="translate(131.43 464.39)"/><path class="cls-7" d="M103.73-246.74l97-97a3.81,3.81,0,0,0,0-5.41l-60-60.05a3.83,3.83,0,0,0-5.41,0l-97,97s-10.72,10.32,22.21,43.25S103.73-246.74,103.73-246.74ZM87.11-316.35a1.27,1.27,0,0,1-1.8,0l-4.58-4.57-4.57,4.57a1.27,1.27,0,0,1-1.8,0l-4-4a1.27,1.27,0,0,1,0-1.8l4.58-4.57-4.58-4.58a1.28,1.28,0,0,1,0-1.81l4-4a1.27,1.27,0,0,1,1.8,0l4.58,4.57,4.57-4.57a1.28,1.28,0,0,1,1.81,0l4,4a1.28,1.28,0,0,1,0,1.81l-4.57,4.57,4.57,4.58a1.27,1.27,0,0,1,0,1.8Zm14.76-8a2.91,2.91,0,0,1,0-4.12,2.85,2.85,0,0,1,2.06-.85,2.87,2.87,0,0,1,2.06.85L119.42-315a2.9,2.9,0,0,1,0,4.11,2.91,2.91,0,0,1-4.12,0Zm2.46,32.89a5.73,5.73,0,0,1,0-8.11,5.73,5.73,0,0,1,8.11,0,5.73,5.73,0,0,1,0,8.11A5.73,5.73,0,0,1,104.33-291.47ZM88-265.16a.88.88,0,0,1-.85-.91.89.89,0,0,1,.91-.85.9.9,0,0,1,.85.91A.88.88,0,0,1,88-265.16Zm3.32-3.08a.86.86,0,0,1-.84-.9.87.87,0,0,1,.9-.85.89.89,0,0,1,.85.9A.88.88,0,0,1,91.35-268.24Zm3.33-3.07a.88.88,0,0,1-.85-.91.88.88,0,0,1,.91-.85.88.88,0,0,1,.84.91A.87.87,0,0,1,94.68-271.31ZM87.91-262a.88.88,0,0,1-.84-.91.88.88,0,0,1,.91-.85.87.87,0,0,1,.84.91A.87.87,0,0,1,87.91-262ZM91.24-265a.87.87,0,0,1-.85-.91.87.87,0,0,1,.91-.84.88.88,0,0,1,.85.91A.88.88,0,0,1,91.24-265Zm3.32-3.07a.87.87,0,0,1-.84-.91.88.88,0,0,1,.9-.85.88.88,0,0,1,.85.91A.88.88,0,0,1,94.56-268.12ZM98-272.95a.87.87,0,0,1,.84.91.87.87,0,0,1-.91.84.89.89,0,0,1-.85-.91A.88.88,0,0,1,98-272.95ZM87.8-258.78a.89.89,0,0,1-.85-.91.9.9,0,0,1,.91-.85.89.89,0,0,1,.85.91A.88.88,0,0,1,87.8-258.78Zm3.32-3.08a.87.87,0,0,1-.84-.91.86.86,0,0,1,.9-.84.88.88,0,0,1,.85.91A.87.87,0,0,1,91.12-261.86Zm3.33-3.07a.88.88,0,0,1-.85-.91.89.89,0,0,1,.91-.85.89.89,0,0,1,.85.91A.88.88,0,0,1,94.45-264.93ZM97.77-268a.87.87,0,0,1-.84-.91.89.89,0,0,1,.9-.85.88.88,0,0,1,.85.91A.88.88,0,0,1,97.77-268Zm21.94-15.44a5.73,5.73,0,0,1,0-8.11,5.72,5.72,0,0,1,8.1,0,5.72,5.72,0,0,1,0,8.11A5.73,5.73,0,0,1,119.71-283.45Zm-15.63,18.86a.87.87,0,0,1-.84-.91.88.88,0,0,1,.91-.85.89.89,0,0,1,.84.91A.89.89,0,0,1,104.08-264.59ZM101-267.9a.88.88,0,0,1-.85-.9.89.89,0,0,1,.91-.85.88.88,0,0,1,.85.91A.87.87,0,0,1,101-267.9Zm-10,9.23a.88.88,0,0,1-.85-.91.88.88,0,0,1,.92-.84.87.87,0,0,1,.84.91A.88.88,0,0,1,91-258.67Zm3.32-3.07a.88.88,0,0,1-.84-.91.87.87,0,0,1,.91-.85.87.87,0,0,1,.84.91A.88.88,0,0,1,94.33-261.74Zm3.33-3.08a.89.89,0,0,1-.85-.91.87.87,0,0,1,.91-.84.88.88,0,0,1,.85.91A.87.87,0,0,1,97.66-264.82Zm-6.77,9.34a.88.88,0,0,1-.84-.91.87.87,0,0,1,.91-.84.88.88,0,0,1,.85.91A.88.88,0,0,1,90.89-255.48Zm3.33-3.07a.88.88,0,0,1-.84-.91.88.88,0,0,1,.91-.85.89.89,0,0,1,.84.91A.89.89,0,0,1,94.22-258.55Zm3.32-3.08a.87.87,0,0,1-.84-.91.88.88,0,0,1,.91-.85.9.9,0,0,1,.85.91A.88.88,0,0,1,97.54-261.63Zm3.33-3.07a.89.89,0,0,1-.85-.91.88.88,0,0,1,.91-.85.88.88,0,0,1,.85.91A.89.89,0,0,1,100.87-264.7Zm-6.76,9.34a.88.88,0,0,1-.85-.91.88.88,0,0,1,.91-.85.88.88,0,0,1,.85.91A.89.89,0,0,1,94.11-255.36Zm3.32-3.08a.86.86,0,0,1-.84-.91.87.87,0,0,1,.91-.84.86.86,0,0,1,.84.9A.88.88,0,0,1,97.43-258.44Zm3.33-3.08a.87.87,0,0,1-.85-.9.87.87,0,0,1,.9-.85.88.88,0,0,1,.85.91A.86.86,0,0,1,100.76-261.52ZM94-252.18a.88.88,0,0,1-.85-.9.89.89,0,0,1,.91-.85.88.88,0,0,1,.85.91A.87.87,0,0,1,94-252.18Zm3.33-3.07a.88.88,0,0,1-.85-.91.89.89,0,0,1,.91-.85.9.9,0,0,1,.85.91A.88.88,0,0,1,97.32-255.25Zm3.32-3.08a.86.86,0,0,1-.84-.9.89.89,0,0,1,.9-.86.88.88,0,0,1,.85.92A.87.87,0,0,1,100.64-258.33ZM104-261.4a.88.88,0,0,1-.85-.91.88.88,0,0,1,.91-.85.9.9,0,0,1,.85.91A.88.88,0,0,1,104-261.4Zm-6.77,9.34a.87.87,0,0,1-.84-.91.88.88,0,0,1,.91-.85.88.88,0,0,1,.84.91A.88.88,0,0,1,97.2-252.06Zm3.33-3.07a.89.89,0,0,1-.85-.91.88.88,0,0,1,.91-.85.88.88,0,0,1,.85.91A.89.89,0,0,1,100.53-255.13Zm3.32-3.09a.86.86,0,0,1-.84-.9.87.87,0,0,1,.9-.85.88.88,0,0,1,.85.91A.87.87,0,0,1,103.85-258.22Zm13.09-66.86c-28.72-28.72-23.3-31.35-23.3-31.35l42-42a3.8,3.8,0,0,1,5.4,0l49.24,49.23a3.83,3.83,0,0,1,0,5.41l-42,42S145.66-296.36,116.94-325.08Z" transform="translate(131.43 464.39)"/><path class="cls-14" d="M-32-241.18A28.17,28.17,0,0,0-8.11-227.94a28.21,28.21,0,0,0,28.2-28.2,28.21,28.21,0,0,0-28.2-28.21A28.14,28.14,0,0,0-30.65-273.1l23,16.76Z" transform="translate(131.43 464.39)"/><rect class="cls-8" x="128.97" y="305.82" width="14.77" height="14.77"/><rect class="cls-8" x="128.97" y="281.47" width="14.77" height="14.77"/><rect class="cls-8" x="128.97" y="330.17" width="14.77" height="14.77"/><rect class="cls-8" x="128.97" y="354.51" width="14.77" height="14.77"/><rect class="cls-8" x="128.97" y="378.86" width="14.77" height="14.77"/><path class="cls-3" d="M-80-169.61H-92.72v-12.77a2.52,2.52,0,0,0-2.51-2.52h-11.21a2.52,2.52,0,0,0-2.51,2.52v12.77h-12.77a2.51,2.51,0,0,0-2.52,2.51v11.21a2.52,2.52,0,0,0,2.52,2.52h12.77v12.77a2.51,2.51,0,0,0,2.51,2.51h11.21a2.51,2.51,0,0,0,2.51-2.51v-12.77H-80a2.51,2.51,0,0,0,2.52-2.52V-167.1A2.51,2.51,0,0,0-80-169.61Zm-24.62,11.85a5.28,5.28,0,0,1-1.54-3.73,5.34,5.34,0,0,1,1.54-3.75,5.35,5.35,0,0,1,3.74-1.55,5.29,5.29,0,0,1,5.28,5.3,5.27,5.27,0,0,1-5.28,5.27A5.34,5.34,0,0,1-104.58-157.76Z" transform="translate(131.43 464.39)"/><g class="cls-31"><path class="cls-3" d="M782.87,652.57v0l-.32-.13-.66-.25-39.41-18.91-.48-.19-.88-.34v0c-11-3.92-26.28,1.08-35,9.86a30.86,30.86,0,0,0-9,20.26L662.84,697.1a30.9,30.9,0,0,0-20.27,9c-8.77,8.78-13.78,24.1-9.86,35h0l.34.88.18.48L652.12,782c.09.22.16.43.25.65l.13.32h0a31,31,0,0,0,57.11-24.38h0l-9.49-24.4,33.93-33.93,24.4,9.48h0a31,31,0,1,0,24.37-57.11Z" transform="translate(131.43 464.39)"/><path class="cls-4" d="M684.54,711.55a26.45,26.45,0,1,1-37.4,0A26.44,26.44,0,0,1,684.54,711.55Z" transform="translate(131.43 464.39)"/><path class="cls-4" d="M752,644.05a26.45,26.45,0,1,1-37.4,0A26.44,26.44,0,0,1,752,644.05Z" transform="translate(131.43 464.39)"/><path class="cls-5" d="M671.35,719.29l-6.53,6.52-6.53-6.52a1.11,1.11,0,0,0-1.57,0l-1.85,1.85a1.12,1.12,0,0,0,0,1.57l6.53,6.53-6.53,6.53a1.12,1.12,0,0,0,0,1.57l1.84,1.85a1.13,1.13,0,0,0,1.58,0l6.53-6.53,6.53,6.53a1.12,1.12,0,0,0,1.57,0l1.84-1.85a1.11,1.11,0,0,0,0-1.57l-6.53-6.53,6.52-6.53a1.1,1.1,0,0,0,0-1.57l-1.84-1.84A1.1,1.1,0,0,0,671.35,719.29Z" transform="translate(131.43 464.39)"/><path class="cls-5" d="M701.09,699.08a6.26,6.26,0,1,1-8.86,0A6.26,6.26,0,0,1,701.09,699.08Z" transform="translate(131.43 464.39)"/><path class="cls-5" d="M714.43,685.74a6.26,6.26,0,1,1-8.86,0A6.26,6.26,0,0,1,714.43,685.74Z" transform="translate(131.43 464.39)"/><path class="cls-6" d="M726.27,647.8a6.26,6.26,0,1,1-8.85,0A6.25,6.25,0,0,1,726.27,647.8Z" transform="translate(131.43 464.39)"/><path class="cls-7" d="M727.94,668.14a6.26,6.26,0,1,1-8.85,0A6.26,6.26,0,0,1,727.94,668.14Z" transform="translate(131.43 464.39)"/><path class="cls-8" d="M746.62,649.46a6.26,6.26,0,1,1-8.85,0A6.26,6.26,0,0,1,746.62,649.46Z" transform="translate(131.43 464.39)"/><path class="cls-9" d="M746.14,667.66a6.26,6.26,0,1,1-8.86,0A6.27,6.27,0,0,1,746.14,667.66Z" transform="translate(131.43 464.39)"/><circle class="cls-8" cx="887.55" cy="1048.75" r="35.17"/><polygon class="cls-10" points="872.5 961.21 924.61 961.21 924.61 1013.31 872.5 961.21"/><rect class="cls-8" x="747.2" y="733.6" width="52.1" height="52.1" transform="translate(-179.24 1233.68) rotate(-45)"/><polygon class="cls-11" points="930.86 1067.71 953.48 1054.65 976.1 1067.71 976.1 1093.83 953.48 1106.89 930.86 1093.83 930.86 1067.71"/><rect class="cls-12" x="602.37" y="641.41" width="50.24" height="50.24" transform="translate(-156.09 1103.33) rotate(-45)"/><rect class="cls-13" x="614.66" y="653.71" width="25.64" height="25.64" transform="translate(-156.09 1103.35) rotate(-45)"/><polygon class="cls-14" points="802.42 1060.4 813.22 1049.61 802.42 1038.82 802.42 1023.56 787.17 1023.56 776.38 1012.77 765.59 1023.56 750.32 1023.56 750.32 1038.82 739.53 1049.61 750.32 1060.4 750.32 1075.66 765.58 1075.66 776.38 1086.45 787.17 1075.66 802.42 1075.66 802.42 1060.4"/><polygon class="cls-15" points="794.88 1057.27 802.54 1049.61 794.88 1041.94 794.88 1031.11 784.04 1031.11 776.38 1023.44 768.71 1031.11 757.88 1031.11 757.88 1041.94 750.21 1049.61 757.88 1057.27 757.88 1068.11 768.71 1068.11 776.38 1075.78 784.04 1068.11 794.88 1068.11 794.88 1057.27"/><path class="cls-7" d="M613.5,745.05v-8.24h8v-8.24H613.3v8.24h-8v8.24h-32v-8.24h-8v-8.24H557v8.24h8v8.24h8v8.24H557V778h8v8.24h8v8.24h32.35v-8.24h8V778h8V753.29H605.46v-8.24Zm-40.39,16.48h8v8.24H565.27v-8.24Zm40.19,0v8.24H597.42v-8.24H613.3Z" transform="translate(131.43 464.39)"/><rect class="cls-7" x="953.48" y="1185.23" width="14.77" height="14.77"/><rect class="cls-7" x="953.48" y="1160.88" width="14.77" height="14.77"/><rect class="cls-7" x="953.48" y="1209.57" width="14.77" height="14.77"/><rect class="cls-12" x="824.51" y="973.33" width="14.77" height="14.77"/><rect class="cls-12" x="824.51" y="948.98" width="14.77" height="14.77"/><rect class="cls-12" x="824.51" y="997.67" width="14.77" height="14.77"/><rect class="cls-12" x="824.51" y="1022.02" width="14.77" height="14.77"/><rect class="cls-12" x="824.51" y="1046.36" width="14.77" height="14.77"/><path class="cls-6" d="M844,500a6.56,6.56,0,1,1-6.55-6.55A6.56,6.56,0,0,1,844,500Z" transform="translate(131.43 464.39)"/><path class="cls-7" d="M830.16,516.34a6.56,6.56,0,1,1-6.56-6.56A6.56,6.56,0,0,1,830.16,516.34Z" transform="translate(131.43 464.39)"/><path class="cls-9" d="M844,529.44a6.56,6.56,0,1,1-6.55-6.55A6.56,6.56,0,0,1,844,529.44Z" transform="translate(131.43 464.39)"/><rect class="cls-12" x="55.38" y="1013.3" width="28.07" height="28.07"/><polygon class="cls-11" points="173.76 1037.16 225.86 1037.16 225.86 1089.26 173.76 1037.16"/><polygon class="cls-11" points="0 1067.71 22.62 1054.65 45.24 1067.71 45.24 1093.83 22.62 1106.89 0 1093.83 0 1067.71"/><path class="cls-6" d="M50.65,501a3.83,3.83,0,0,0-4.48.42,3.92,3.92,0,0,0,1.79,6.8l.44.08c0,.32-.84,10.43-1.75,15.31-.42,2.18-2,1.41-2.84.79L29.4,513.1a2.28,2.28,0,0,1,.23-.27,4.72,4.72,0,1,0-2.87,1.38l.5-.05a.62.62,0,0,1,0,.18c0,5.81.46,12.63-.2,18.4-.28,2.46-1.15,2-2.36,1.64l-25.1-8.44a11.09,11.09,0,0,0-1.72-13.4,11.11,11.11,0,0,0-15.71,0,11.11,11.11,0,0,0,0,15.71,11.06,11.06,0,0,0,12.94,2c2.19,6.92,6.46,20.54,8.15,26a1.8,1.8,0,0,1-1.23,2.39l-4.53,0-5.45,0-5.58,0-3.27,0h-.33c-.08-.15,0-.29,0-.43a4.64,4.64,0,0,0-.75-3.11,4.71,4.71,0,0,0-6.56-1.34,4.68,4.68,0,0,0-1.41,6.4,4.58,4.58,0,0,0,3.94,2.25,4.53,4.53,0,0,0,3.21-1.19l.21-.18.15.14,1.79,2.49c.67.91,1.33,1.83,2,2.75s1.32,1.83,2,2.76l2,2.75c.66.9,1.3,1.81,2,2.72s1.42,1.8,2,2.79c.87,1.46-1.86,1.42-3.17,1.49l-12.31.62a3.32,3.32,0,0,1,0-.35,3.82,3.82,0,0,0-.65-2.63,3.89,3.89,0,0,0-5.34-1.11,3.9,3.9,0,0,0-1.19,5.41.59.59,0,0,1,.14.38l.65.65a.71.71,0,0,1,.42.17,3.76,3.76,0,0,0,2.77.54,3.66,3.66,0,0,0,2-1l.19-.17H-23c1,.86,2.07,1.78,3.12,2.68s2.06,1.79,3.1,2.69,2.1,1.8,3.14,2.71,2.06,1.8,3.1,2.69,2.09,1.82,3.15,2.7c.11-.08.21-.13.29-.2l2.45-2,2.72-2.3,2.12-1.84,2.25-1.95,1.17-1,2.56-2.28,2.69-2.4c.71-.65,1.43-1.29,2.14-1.95l3-2.72,3.35-3.11c.93-.87,1.86-1.72,2.79-2.6l1.32-1.27,2.7-2.59,1.41-1.37L29,561.91l4.64-4.61,2.94-3,2.81-2.93c.9-.94,1.81-1.87,2.69-2.82s1.64-1.76,2.46-2.64c.38-.42.79-.83,1.17-1.25,1-1.14,2.08-2.27,3.11-3.41s2-2.2,3-3.3c.75-.83,1.49-1.67,2.23-2.51.88-1,1.75-2,2.63-3.05l1.66-1.94c.51-.6,1-1.2,1.5-1.8L61.11,527l1.44-1.75.72-.88.24-.32a1.72,1.72,0,0,0-.3-.47c-.82-1.05-1.66-2.11-2.48-3.17l-2.38-3L56.44,515l-1.89-2.41c-.64-.82-1.29-1.66-1.94-2.48-.5-.63-1-1.27-1.49-1.91-.1-.12-.18-.25-.27-.36s.19-.22.3-.31a3.86,3.86,0,0,0,1.49-3.18,3.34,3.34,0,0,0-.54-1.83s0-.07,0-.11l-1.31-1.31A.5.5,0,0,1,50.65,501Z" transform="translate(131.43 464.39)"/><path class="cls-8" d="M18.16,732.21v-8.67H9.71v-8.67H-7.42v8.67h-8.24v-8.67H-32.79v8.67h-8.45v8.67H-49.7v26h8.46v17.33h.14v8.67h16.84v-8.67h-8.31v-8.67H9.49v8.46H1V784H18.09v-8.46h.07V758.21h8.46v-26ZM18,749.54H1.25v-8.67H18Zm-59,0v-8.67h16.7v8.67H-41Z" transform="translate(131.43 464.39)"/><path class="cls-12" d="M52.8,619.15v-7.59H38V604h-7.6v7.6H23.15V604h-7.6v7.6H.73v7.59H-6.68v30.39H.73v7.6H8.14v7.6h7.6v-7.6H23v7.6h7.6v-7.6h7.23v7.6h7.59v-7.6H52.8v-7.6h7.41V619.15ZM.91,626.75H15.55v15.19H.91V626.75Zm51.7,15.19H38V626.75H52.61v15.19Z" transform="translate(131.43 464.39)"/><rect class="cls-16" x="121.45" y="718.48" width="43.75" height="50.33" transform="translate(-352.42 783.55) rotate(-45)"/><path class="cls-17" d="M126.39,711.31a1.24,1.24,0,1,0,0,1.76A1.23,1.23,0,0,0,126.39,711.31Z" transform="translate(131.43 464.39)"/><path class="cls-3" d="M190.29,752a3.83,3.83,0,0,0,0-5.41l-49.24-49.24a3.82,3.82,0,0,0-5.4,0l-42,42s-5.42,2.63,23.3,31.35S148.29,794,148.29,794Zm-65.65-38.94a1.24,1.24,0,1,1,1.75,0A1.24,1.24,0,0,1,124.64,713.07Zm21,63.84-35.59-35.59L141,710.38,176.6,746Z" transform="translate(131.43 464.39)"/><path class="cls-7" d="M103.73,849.06l97-97a3.8,3.8,0,0,0,0-5.4l-60-60.05a3.83,3.83,0,0,0-5.41,0l-97,97s-10.72,10.32,22.21,43.25S103.73,849.06,103.73,849.06ZM87.11,779.45a1.27,1.27,0,0,1-1.8,0l-4.58-4.58-4.57,4.58a1.27,1.27,0,0,1-1.8,0l-4-4a1.27,1.27,0,0,1,0-1.8l4.58-4.58-4.58-4.57a1.28,1.28,0,0,1,0-1.81l4-4a1.27,1.27,0,0,1,1.8,0l4.58,4.57,4.57-4.57a1.28,1.28,0,0,1,1.81,0l4,4a1.28,1.28,0,0,1,0,1.81l-4.57,4.57,4.57,4.58a1.27,1.27,0,0,1,0,1.8Zm14.76-8a2.91,2.91,0,0,1,0-4.12,2.92,2.92,0,0,1,4.12,0l13.43,13.43a2.91,2.91,0,0,1-4.12,4.12Zm2.46,32.89a5.73,5.73,0,1,1,8.11,0A5.73,5.73,0,0,1,104.33,804.33ZM88,830.64a.88.88,0,0,1,.06-1.76.9.9,0,0,1,.85.91A.88.88,0,0,1,88,830.64Zm3.32-3.08a.88.88,0,0,1,.06-1.75.88.88,0,1,1-.06,1.75Zm3.33-3.07a.88.88,0,0,1-.85-.91.87.87,0,0,1,.91-.85.88.88,0,0,1-.06,1.76Zm-6.77,9.34a.88.88,0,1,1,.91-.85A.88.88,0,0,1,87.91,833.83Zm3.33-3.08a.88.88,0,1,1,.91-.84A.88.88,0,0,1,91.24,830.75Zm3.32-3.07a.88.88,0,1,1,.91-.85A.89.89,0,0,1,94.56,827.68ZM98,822.85a.88.88,0,1,1-.07,1.75.88.88,0,1,1,.07-1.75ZM87.8,837a.88.88,0,1,1,.91-.85A.89.89,0,0,1,87.8,837Zm3.32-3.08a.88.88,0,1,1,.91-.84A.87.87,0,0,1,91.12,833.94Zm3.33-3.07a.88.88,0,1,1,.91-.85A.88.88,0,0,1,94.45,830.87Zm3.32-3.08a.87.87,0,0,1-.84-.91.88.88,0,1,1,1.75.06A.88.88,0,0,1,97.77,827.79Zm21.94-15.44a5.73,5.73,0,1,1,8.11,0A5.73,5.73,0,0,1,119.71,812.35Zm-15.63,18.86a.88.88,0,0,1,.07-1.76.88.88,0,0,1-.07,1.76ZM101,827.9a.88.88,0,1,1,.91-.84A.88.88,0,0,1,101,827.9Zm-10,9.23a.88.88,0,1,1,.07-1.75.87.87,0,0,1,.84.91A.88.88,0,0,1,91,837.13Zm3.32-3.07a.88.88,0,0,1-.84-.91.88.88,0,1,1,.84.91ZM97.66,831a.89.89,0,0,1-.85-.91.88.88,0,1,1,.85.91Zm-6.77,9.34a.88.88,0,1,1,.92-.84A.88.88,0,0,1,90.89,840.32Zm3.33-3.07a.88.88,0,0,1-.84-.91.87.87,0,0,1,.91-.85.88.88,0,0,1-.07,1.76Zm3.32-3.08a.88.88,0,0,1,.07-1.76.9.9,0,0,1,.85.91A.88.88,0,0,1,97.54,834.17Zm3.33-3.07a.88.88,0,0,1,.06-1.76.88.88,0,0,1,.85.91A.89.89,0,0,1,100.87,831.1Zm-6.76,9.33a.88.88,0,1,1,.91-.84A.88.88,0,0,1,94.11,840.43Zm3.32-3.07a.88.88,0,1,1,.91-.85A.88.88,0,0,1,97.43,837.36Zm3.33-3.08a.88.88,0,1,1,.9-.84A.87.87,0,0,1,100.76,834.28ZM94,843.62a.88.88,0,1,1,.91-.84A.87.87,0,0,1,94,843.62Zm3.33-3.07a.88.88,0,0,1,.06-1.76.9.9,0,0,1,.85.91A.88.88,0,0,1,97.32,840.55Zm3.32-3.08a.86.86,0,0,1-.84-.9.88.88,0,1,1,1.75,0A.88.88,0,0,1,100.64,837.47ZM104,834.4a.88.88,0,0,1,.06-1.76.9.9,0,0,1,.85.91A.88.88,0,0,1,104,834.4Zm-6.77,9.34a.88.88,0,1,1,.91-.85A.88.88,0,0,1,97.2,843.74Zm3.33-3.07a.89.89,0,0,1-.85-.91.88.88,0,1,1,1.76.06A.9.9,0,0,1,100.53,840.67Zm3.32-3.09a.88.88,0,0,1,.06-1.75.88.88,0,1,1-.06,1.75Zm13.09-66.86c-28.72-28.72-23.3-31.35-23.3-31.35l42-42a3.82,3.82,0,0,1,5.4,0l49.24,49.24a3.83,3.83,0,0,1,0,5.41l-42,42S145.66,799.44,116.94,770.72Z" transform="translate(131.43 464.39)"/><path class="cls-14" d="M-20.78,648.44a34.2,34.2,0,0,0-29-16.08A34.24,34.24,0,0,0-84,666.6,34.24,34.24,0,0,0-49.8,700.84a34.19,34.19,0,0,0,27.36-13.65l-28-20.36Z" transform="translate(131.43 464.39)"/><path class="cls-6" d="M-86.88,500a6.56,6.56,0,0,1-6.55,6.56A6.56,6.56,0,0,1-100,500a6.55,6.55,0,0,1,6.55-6.55A6.55,6.55,0,0,1-86.88,500Z" transform="translate(131.43 464.39)"/><path class="cls-8" d="M-73,516.34a6.55,6.55,0,0,1-6.55,6.55,6.56,6.56,0,0,1-6.56-6.55,6.56,6.56,0,0,1,6.56-6.56A6.56,6.56,0,0,1-73,516.34Z" transform="translate(131.43 464.39)"/><path class="cls-9" d="M-86.88,529.44A6.56,6.56,0,0,1-93.43,536a6.56,6.56,0,0,1-6.55-6.56,6.55,6.55,0,0,1,6.55-6.55A6.55,6.55,0,0,1-86.88,529.44Z" transform="translate(131.43 464.39)"/><path class="cls-3" d="M101.89,677.83H89.13V665.06a2.51,2.51,0,0,0-2.52-2.51H75.4a2.51,2.51,0,0,0-2.51,2.51v12.77H60.12a2.51,2.51,0,0,0-2.51,2.52v11.21a2.51,2.51,0,0,0,2.51,2.51H72.89v12.77a2.51,2.51,0,0,0,2.51,2.52H86.61a2.52,2.52,0,0,0,2.52-2.52V694.07h12.76a2.51,2.51,0,0,0,2.51-2.51V680.35A2.51,2.51,0,0,0,101.89,677.83ZM77.26,689.69A5.3,5.3,0,1,1,81,691.23,5.3,5.3,0,0,1,77.26,689.69Z" transform="translate(131.43 464.39)"/><path class="cls-3" d="M782.87,104.67v0l-.32-.13-.66-.25L742.49,85.36l-.48-.19-.88-.34v0c-11-3.92-26.28,1.08-35,9.86a30.86,30.86,0,0,0-9,20.27L662.84,149.2a30.9,30.9,0,0,0-20.27,9c-8.77,8.78-13.78,24.1-9.86,35h0l.34.89.18.47,18.91,39.42c.09.22.16.44.25.65l.13.32h0a31,31,0,0,0,57.11-24.38h0l-9.49-24.4,33.93-33.93,24.4,9.48h0a31,31,0,1,0,24.37-57.11Z" transform="translate(131.43 464.39)"/><path class="cls-4" d="M684.54,163.65a26.45,26.45,0,1,1-37.4,0A26.44,26.44,0,0,1,684.54,163.65Z" transform="translate(131.43 464.39)"/><rect class="cls-8" x="747.2" y="185.7" width="52.1" height="52.1" transform="translate(208.19 1073.19) rotate(-45)"/><polygon class="cls-14" points="787.68 778.86 809.18 766.45 830.68 778.86 830.68 803.68 809.18 816.1 787.68 803.68 787.68 778.86"/><polygon class="cls-18" points="949.09 765.55 977.43 749.19 1005.77 765.55 1005.77 798.28 977.43 814.64 949.09 798.28 949.09 765.55"/><polygon class="cls-10" points="1000.6 868.69 1013.06 893.92 1040.9 897.97 1020.75 917.61 1025.51 945.34 1000.6 932.25 975.7 945.34 980.45 917.61 960.3 897.97 988.15 893.92 1000.6 868.69"/><polygon class="cls-19" points="742.57 718 755.02 743.23 782.86 747.27 762.72 766.91 767.47 794.65 742.57 781.55 717.66 794.65 722.42 766.91 702.27 747.27 730.11 743.23 742.57 718"/><rect class="cls-20" x="762.57" y="417.55" width="50.24" height="50.24" transform="translate(49.13 1151.04) rotate(-45)"/><rect class="cls-13" x="774.87" y="429.85" width="25.64" height="25.64" transform="translate(49.14 1151.06) rotate(-45)"/><rect class="cls-21" x="719.5" y="373.39" width="50.5" height="2.36" transform="translate(84.7 1100.7) rotate(-45)"/><polygon class="cls-7" points="892.15 822.99 914.05 844.89 902.05 844.5 901.65 857.3 879.75 835.39 892.15 822.99"/><rect class="cls-22" x="694.86" y="360.51" width="15.42" height="15.17" transform="translate(76.93 1068.99) rotate(-45)"/><rect class="cls-22" x="734.44" y="400.09" width="15.42" height="15.17" transform="translate(60.54 1108.57) rotate(-45)"/><rect class="cls-22" x="714.65" y="380.3" width="15.42" height="15.17" transform="translate(68.73 1088.78) rotate(-45)"/><rect class="cls-23" x="663.56" y="391.83" width="60.95" height="50.5" transform="translate(39.79 1077.31) rotate(-45)"/><rect class="cls-6" x="708.64" y="359.43" width="13.18" height="71.15" transform="translate(61.61 1085.83) rotate(-45)"/><rect class="cls-6" x="668.6" y="404.49" width="6.72" height="66.17" transform="translate(18.83 1067.7) rotate(-45)"/><rect class="cls-7" x="953.48" y="661.68" width="14.77" height="14.77"/><rect class="cls-7" x="953.48" y="686.02" width="14.77" height="14.77"/><rect class="cls-7" x="953.48" y="710.37" width="14.77" height="14.77"/><path class="cls-6" d="M640.87,358.2a6.56,6.56,0,1,1-6.55-6.55A6.56,6.56,0,0,1,640.87,358.2Z" transform="translate(131.43 464.39)"/><path class="cls-7" d="M627.05,374.5a6.56,6.56,0,1,1-6.56-6.55A6.56,6.56,0,0,1,627.05,374.5Z" transform="translate(131.43 464.39)"/><path class="cls-8" d="M654.69,374.5a6.55,6.55,0,1,1-6.55-6.55A6.55,6.55,0,0,1,654.69,374.5Z" transform="translate(131.43 464.39)"/><path class="cls-9" d="M640.87,387.61a6.56,6.56,0,1,1-6.55-6.56A6.55,6.55,0,0,1,640.87,387.61Z" transform="translate(131.43 464.39)"/><path class="cls-3" d="M850.9,378.29H838.14V365.52a2.51,2.51,0,0,0-2.51-2.52H824.42a2.51,2.51,0,0,0-2.51,2.52v12.77H809.13a2.51,2.51,0,0,0-2.51,2.51V392a2.51,2.51,0,0,0,2.51,2.52h12.78v12.76a2.51,2.51,0,0,0,2.51,2.52h11.21a2.51,2.51,0,0,0,2.51-2.52V394.53H850.9a2.51,2.51,0,0,0,2.51-2.52V380.8A2.51,2.51,0,0,0,850.9,378.29Zm-24.62,11.85a5.24,5.24,0,0,1-1.55-3.73,5.27,5.27,0,1,1,1.55,3.73Z" transform="translate(131.43 464.39)"/><path class="cls-3" d="M317.44,378.62v0l-.32-.13-.66-.25-39.41-18.91-.48-.19-.88-.34v0c-11-3.92-26.28,1.08-35.05,9.86a30.91,30.91,0,0,0-9,20.26l-34.21,34.22a30.94,30.94,0,0,0-20.27,9c-8.77,8.78-13.77,24.1-9.85,35h0l.34.89.18.47L186.69,508l.26.65.12.32h0a31,31,0,0,0,57.11-24.38h0l-9.49-24.4,33.94-33.93,24.39,9.48h0a31,31,0,1,0,24.37-57.11Z" transform="translate(131.43 464.39)"/><path class="cls-4" d="M219.11,437.6a26.45,26.45,0,1,1-37.4,0A26.44,26.44,0,0,1,219.11,437.6Z" transform="translate(131.43 464.39)"/><path class="cls-4" d="M286.61,370.1a26.45,26.45,0,1,1-37.4,0A26.44,26.44,0,0,1,286.61,370.1Z" transform="translate(131.43 464.39)"/><path class="cls-5" d="M205.92,445.34l-6.53,6.52-6.53-6.52a1.11,1.11,0,0,0-1.57,0l-1.85,1.85a1.11,1.11,0,0,0,0,1.57l6.52,6.53-6.53,6.53a1.13,1.13,0,0,0,0,1.58l1.85,1.84a1.12,1.12,0,0,0,1.57,0l6.53-6.53,6.53,6.53a1.12,1.12,0,0,0,1.57,0l1.85-1.85a1.12,1.12,0,0,0,0-1.57l-6.53-6.53,6.53-6.53a1.12,1.12,0,0,0,0-1.57l-1.85-1.84A1.1,1.1,0,0,0,205.92,445.34Z" transform="translate(131.43 464.39)"/><path class="cls-5" d="M235.66,425.13a6.26,6.26,0,1,1-8.86,0A6.26,6.26,0,0,1,235.66,425.13Z" transform="translate(131.43 464.39)"/><path class="cls-5" d="M249,411.79a6.26,6.26,0,1,1-8.85,0A6.25,6.25,0,0,1,249,411.79Z" transform="translate(131.43 464.39)"/><path class="cls-6" d="M260.85,373.85a6.26,6.26,0,1,1-8.86,0A6.26,6.26,0,0,1,260.85,373.85Z" transform="translate(131.43 464.39)"/><path class="cls-7" d="M262.52,394.19a6.26,6.26,0,1,1-8.86,0A6.28,6.28,0,0,1,262.52,394.19Z" transform="translate(131.43 464.39)"/><path class="cls-8" d="M281.2,375.51a6.26,6.26,0,1,1-8.86,0A6.27,6.27,0,0,1,281.2,375.51Z" transform="translate(131.43 464.39)"/><path class="cls-9" d="M280.71,393.71a6.26,6.26,0,1,1-8.86,0A6.26,6.26,0,0,1,280.71,393.71Z" transform="translate(131.43 464.39)"/><circle class="cls-8" cx="290.69" cy="310.41" r="30.6" transform="translate(28.98 612.65) rotate(-24.47)"/><rect class="cls-12" x="520.8" y="739.35" width="28.07" height="28.07"/><polygon class="cls-11" points="639.18 763.21 691.29 763.21 691.29 815.31 639.18 763.21"/><polygon class="cls-10" points="407.08 687.26 459.18 687.26 459.18 739.36 407.08 687.26"/><polygon class="cls-24" points="574.27 1150.38 537.43 1113.54 574.27 1076.7 574.27 1150.38"/><rect class="cls-8" x="281.77" y="459.65" width="52.1" height="52.1" transform="translate(-121.85 824.32) rotate(-45)"/><polygon class="cls-14" points="322.25 1052.81 343.75 1040.4 365.25 1052.81 365.25 1077.63 343.75 1090.05 322.25 1077.63 322.25 1052.81"/><polygon class="cls-18" points="483.66 1039.5 512 1023.14 540.34 1039.5 540.34 1072.23 512 1088.59 483.66 1072.23 483.66 1039.5"/><polygon class="cls-11" points="465.43 793.76 488.05 780.7 510.67 793.76 510.67 819.88 488.05 832.94 465.43 819.88 465.43 793.76"/><polygon class="cls-10" points="535.17 1142.64 547.63 1167.87 575.47 1171.92 555.32 1191.56 560.08 1219.29 535.17 1206.2 510.27 1219.29 515.02 1191.56 494.88 1171.92 522.72 1167.87 535.17 1142.64"/><polygon class="cls-19" points="277.14 991.95 289.59 1017.18 317.44 1021.22 297.29 1040.86 302.05 1068.6 277.14 1055.5 252.23 1068.6 256.99 1040.86 236.84 1021.22 264.68 1017.18 277.14 991.95"/><path class="cls-6" d="M516.08,227.08a3.83,3.83,0,0,0-4.48.42,3.92,3.92,0,0,0,1.79,6.8l.44.08c0,.32-.84,10.43-1.76,15.31-.41,2.18-2,1.41-2.84.79q-7.19-5.65-14.4-11.33a2.28,2.28,0,0,1,.23-.27,4.72,4.72,0,0,0-4.59-7.88,4.72,4.72,0,0,0,1.71,9.26l.51,0a1.41,1.41,0,0,1,0,.18c0,5.81.46,12.63-.2,18.4-.29,2.46-1.15,2-2.36,1.64L465.05,252a11.13,11.13,0,1,0-4.49,4.27c2.19,6.92,6.46,20.54,8.15,26a1.8,1.8,0,0,1-1.23,2.39l-4.54,0-5.45,0-5.57,0-3.27,0h-.33c-.08-.15,0-.29,0-.43a4.72,4.72,0,1,0-8.72,1.95,4.71,4.71,0,0,0,7.15,1.06l.21-.18.15.14,1.79,2.49c.67.91,1.33,1.83,2,2.75s1.33,1.83,2,2.76l2,2.75c.66.9,1.3,1.81,2,2.72s1.42,1.8,2,2.79c.87,1.46-1.86,1.42-3.17,1.49l-12.31.62c0-.14,0-.25,0-.35a3.76,3.76,0,0,0-.64-2.63,3.91,3.91,0,0,0-6.53,4.3.58.58,0,0,1,.13.38l.66.65a.71.71,0,0,1,.41.17,3.79,3.79,0,0,0,2.78.54,3.66,3.66,0,0,0,2-1l.19-.17h.09c1,.86,2.06,1.78,3.11,2.68s2.07,1.79,3.1,2.69,2.11,1.8,3.15,2.71,2.06,1.8,3.1,2.69S457,320.11,458,321c.11-.08.21-.13.29-.2l2.45-2.05,2.71-2.3c.72-.61,1.42-1.23,2.13-1.84l2.25-2c.39-.33.78-.67,1.16-1l2.57-2.28,2.69-2.4c.71-.65,1.43-1.29,2.14-1.95l3-2.72,3.35-3.11c.92-.86,1.86-1.72,2.78-2.6l1.33-1.27,2.69-2.59c.48-.45,1-.91,1.42-1.37l3.44-3.38,4.63-4.61c1-1,2-2,2.94-3l2.82-2.93c.9-.94,1.81-1.87,2.69-2.82s1.64-1.76,2.46-2.64c.38-.42.79-.83,1.17-1.25,1-1.14,2.08-2.27,3.11-3.41s2-2.2,3-3.3c.75-.83,1.49-1.67,2.23-2.51.88-1,1.75-2,2.62-3.05l1.66-1.94,1.51-1.8,1.36-1.65,1.44-1.75.71-.88.25-.32a1.72,1.72,0,0,0-.3-.47c-.83-1-1.66-2.11-2.48-3.17l-2.39-3-1.9-2.44L520,238.59c-.65-.82-1.29-1.66-1.94-2.48l-1.5-1.91-.26-.36c.05-.17.19-.22.29-.31a3.84,3.84,0,0,0,1.5-3.18,3.34,3.34,0,0,0-.54-1.83.2.2,0,0,1,0-.11l-1.31-1.31A.5.5,0,0,1,516.08,227.08Z" transform="translate(131.43 464.39)"/><polygon class="cls-10" points="635.76 1218.28 622.76 1195.77 635.76 1173.25 661.76 1173.25 674.76 1195.77 661.76 1218.28 635.76 1218.28"/><polygon class="cls-15" points="639.74 1211.4 630.71 1195.77 639.74 1180.13 657.79 1180.13 666.81 1195.77 657.79 1211.4 639.74 1211.4"/><rect class="cls-20" x="297.14" y="691.5" width="50.24" height="50.24" transform="translate(-280.91 902.17) rotate(-45)"/><rect class="cls-13" x="309.44" y="703.8" width="25.64" height="25.64" transform="translate(-280.91 902.18) rotate(-45)"/><rect class="cls-9" x="555.63" y="602.49" width="42.21" height="42.21" transform="translate(-140.59 1054.86) rotate(-45)"/><rect class="cls-13" x="565.96" y="612.82" width="21.55" height="21.55" transform="translate(-140.6 1054.88) rotate(-45)"/><rect class="cls-12" x="136.94" y="367.46" width="50.24" height="50.24" transform="translate(-98.7 693.98) rotate(-45)"/><rect class="cls-13" x="149.24" y="379.76" width="25.64" height="25.64" transform="translate(-98.7 693.98) rotate(-45)"/><polygon class="cls-14" points="337 786.45 347.79 775.66 337 764.87 337 749.61 321.74 749.61 310.95 738.82 300.16 749.61 284.9 749.61 284.9 764.87 274.1 775.66 284.9 786.45 284.9 801.71 300.15 801.71 310.95 812.5 321.74 801.71 337 801.71 337 786.45"/><polygon class="cls-15" points="329.45 783.32 337.11 775.66 329.45 767.99 329.45 757.15 318.61 757.15 310.95 749.49 303.28 757.15 292.45 757.15 292.45 767.99 284.78 775.66 292.45 783.32 292.45 794.16 303.28 794.16 310.95 801.83 318.61 794.16 329.45 794.16 329.45 783.32"/><polygon class="cls-11" points="635.23 853.46 646.02 842.66 635.23 831.87 635.23 816.61 619.97 816.61 609.18 805.82 598.39 816.61 583.13 816.61 583.13 831.87 572.33 842.66 583.13 853.46 583.13 868.71 598.38 868.71 609.18 879.5 619.97 868.71 635.23 868.71 635.23 853.46"/><polygon class="cls-18" points="627.68 850.33 635.34 842.66 627.68 835 627.68 824.16 616.84 824.16 609.18 816.5 601.51 824.16 590.68 824.16 590.68 835 583.01 842.66 590.68 850.33 590.68 861.17 601.51 861.17 609.18 868.83 616.84 861.17 627.68 861.17 627.68 850.33"/><rect class="cls-6" x="629.63" y="1046.28" width="39.42" height="107.52"/><rect class="cls-13" x="635.15" y="1057.92" width="28.37" height="84.24"/><rect class="cls-21" x="254.08" y="647.34" width="50.5" height="2.36" transform="translate(-245.33 851.87) rotate(-45)"/><polygon class="cls-7" points="426.72 1096.94 448.63 1118.85 436.62 1118.45 436.22 1131.25 414.32 1109.35 426.72 1096.94"/><rect class="cls-22" x="229.43" y="634.46" width="15.42" height="15.17" transform="translate(-253.1 820.12) rotate(-45)"/><rect class="cls-22" x="269.01" y="674.04" width="15.42" height="15.17" transform="translate(-269.5 859.71) rotate(-45)"/><rect class="cls-22" x="249.22" y="654.25" width="15.42" height="15.17" transform="translate(-261.3 839.91) rotate(-45)"/><rect class="cls-23" x="198.13" y="665.78" width="60.95" height="50.5" transform="translate(-290.24 828.44) rotate(-45)"/><rect class="cls-6" x="243.21" y="633.38" width="13.18" height="71.15" transform="translate(-268.42 836.96) rotate(-45)"/><rect class="cls-6" x="203.17" y="678.44" width="6.72" height="66.17" transform="translate(-311.2 818.83) rotate(-45)"/><rect class="cls-16" x="586.88" y="444.53" width="43.75" height="50.33" transform="translate(-22.39 1032.42) rotate(-45)"/><path class="cls-17" d="M591.82,437.36a1.24,1.24,0,1,0,0,1.76A1.23,1.23,0,0,0,591.82,437.36Z" transform="translate(131.43 464.39)"/><path class="cls-3" d="M655.72,478.06a3.83,3.83,0,0,0,0-5.41l-49.24-49.24a3.82,3.82,0,0,0-5.41,0l-42,42s-5.42,2.63,23.3,31.35,31.35,23.29,31.35,23.29Zm-65.65-38.94a1.24,1.24,0,1,1,1.75,0A1.24,1.24,0,0,1,590.07,439.12Zm21,63.84-35.59-35.59,30.94-30.94L642,472Z" transform="translate(131.43 464.39)"/><path class="cls-25" d="M559.48,567.92a.88.88,0,1,0,.85.91A.88.88,0,0,0,559.48,567.92Z" transform="translate(131.43 464.39)"/><path class="cls-25" d="M562.69,568a.88.88,0,0,0-.06,1.76.88.88,0,0,0,.06-1.76Z" transform="translate(131.43 464.39)"/><path class="cls-25" d="M566,565a.88.88,0,1,0-.06,1.76.9.9,0,0,0,.91-.85A.88.88,0,0,0,566,565Z" transform="translate(131.43 464.39)"/><path class="cls-25" d="M562.81,564.84a.88.88,0,1,0,.85.91A.9.9,0,0,0,562.81,564.84Z" transform="translate(131.43 464.39)"/><path class="cls-25" d="M562.92,561.66a.88.88,0,0,0-.91.84.87.87,0,0,0,.85.91.88.88,0,0,0,.91-.85A.87.87,0,0,0,562.92,561.66Z" transform="translate(131.43 464.39)"/><path class="cls-25" d="M559.72,561.54a.88.88,0,0,0-.07,1.76.88.88,0,0,0,.07-1.76Z" transform="translate(131.43 464.39)"/><path class="cls-25" d="M559.6,564.73a.88.88,0,0,0-.06,1.76.88.88,0,1,0,.06-1.76Z" transform="translate(131.43 464.39)"/><path class="cls-25" d="M556.39,564.62a.88.88,0,1,0,.84.91A.87.87,0,0,0,556.39,564.62Z" transform="translate(131.43 464.39)"/><path class="cls-25" d="M553.29,561.31a.88.88,0,1,0-.06,1.76.88.88,0,0,0,.06-1.76Z" transform="translate(131.43 464.39)"/><path class="cls-25" d="M556.5,561.43a.88.88,0,1,0,.85.91A.88.88,0,0,0,556.5,561.43Z" transform="translate(131.43 464.39)"/><path class="cls-25" d="M559.82,558.35a.88.88,0,1,0,.85.91A.88.88,0,0,0,559.82,558.35Z" transform="translate(131.43 464.39)"/><path class="cls-25" d="M556.61,558.24a.88.88,0,1,0,.85.91A.88.88,0,0,0,556.61,558.24Z" transform="translate(131.43 464.39)"/><path class="cls-25" d="M553.4,558.12a.88.88,0,1,0,.85.91A.88.88,0,0,0,553.4,558.12Z" transform="translate(131.43 464.39)"/><path class="cls-25" d="M553.52,554.93a.88.88,0,1,0-.06,1.76.87.87,0,0,0,.9-.85A.88.88,0,0,0,553.52,554.93Z" transform="translate(131.43 464.39)"/><path class="cls-25" d="M556.73,555.05a.88.88,0,1,0,.85.91A.89.89,0,0,0,556.73,555.05Z" transform="translate(131.43 464.39)"/><path class="cls-25" d="M556.84,551.86a.88.88,0,0,0-.06,1.75.88.88,0,1,0,.06-1.75Z" transform="translate(131.43 464.39)"/><path class="cls-25" d="M560.05,552a.88.88,0,1,0,.85.91A.89.89,0,0,0,560.05,552Z" transform="translate(131.43 464.39)"/><path class="cls-25" d="M559.94,555.16a.88.88,0,0,0-.06,1.76.88.88,0,0,0,.06-1.76Z" transform="translate(131.43 464.39)"/><path class="cls-25" d="M563.15,555.28a.88.88,0,1,0,.85.91A.87.87,0,0,0,563.15,555.28Z" transform="translate(131.43 464.39)"/><path class="cls-25" d="M563,558.46a.88.88,0,1,0,.84.91A.88.88,0,0,0,563,558.46Z" transform="translate(131.43 464.39)"/><path class="cls-25" d="M566.24,558.58a.88.88,0,1,0-.06,1.75.88.88,0,1,0,.06-1.75Z" transform="translate(131.43 464.39)"/><path class="cls-25" d="M566.13,561.76a.88.88,0,0,0-.9.86.86.86,0,0,0,.84.9.88.88,0,1,0,.06-1.76Z" transform="translate(131.43 464.39)"/><path class="cls-25" d="M569.34,561.88a.88.88,0,1,0-.06,1.75.88.88,0,1,0,.06-1.75Z" transform="translate(131.43 464.39)"/><path class="cls-25" d="M569.46,558.69a.88.88,0,1,0,.84.91A.88.88,0,0,0,569.46,558.69Z" transform="translate(131.43 464.39)"/><path class="cls-25" d="M569.57,555.5a.88.88,0,1,0,.85.91A.89.89,0,0,0,569.57,555.5Z" transform="translate(131.43 464.39)"/><path class="cls-25" d="M566.36,555.39a.88.88,0,0,0-.06,1.76.89.89,0,0,0,.91-.85A.88.88,0,0,0,566.36,555.39Z" transform="translate(131.43 464.39)"/><path class="cls-25" d="M566.47,552.2a.88.88,0,1,0,.85.91A.89.89,0,0,0,566.47,552.2Z" transform="translate(131.43 464.39)"/><path class="cls-25" d="M563.26,552.08a.88.88,0,0,0-.9.85.87.87,0,0,0,.84.91.88.88,0,1,0,.06-1.76Z" transform="translate(131.43 464.39)"/><path class="cls-25" d="M563.31,550.65a.88.88,0,1,0,.06-1.75.88.88,0,1,0-.06,1.75Z" transform="translate(131.43 464.39)"/><path class="cls-25" d="M560.17,548.78a.87.87,0,0,0-.91.85.88.88,0,0,0,.84.91.87.87,0,0,0,.91-.85A.88.88,0,0,0,560.17,548.78Z" transform="translate(131.43 464.39)"/><path class="cls-25" d="M548.06,497a2.69,2.69,0,0,0,0-3.79,2.69,2.69,0,0,0-4.58,1.89,2.75,2.75,0,0,0,.79,1.9A2.69,2.69,0,0,0,548.06,497Z" transform="translate(131.43 464.39)"/><path class="cls-26" d="M584.85,510.92a2.91,2.91,0,0,0,0-4.12l-13.43-13.43a2.87,2.87,0,0,0-2.06-.85,2.83,2.83,0,0,0-2.06.85,2.91,2.91,0,0,0,0,4.12l13.43,13.43A2.91,2.91,0,0,0,584.85,510.92Z" transform="translate(131.43 464.39)"/><path class="cls-3" d="M593.25,538.4a5.73,5.73,0,1,0-8.11,0A5.72,5.72,0,0,0,593.25,538.4Z" transform="translate(131.43 464.39)"/><path class="cls-3" d="M577.87,522.27a5.73,5.73,0,1,0,0,8.11A5.73,5.73,0,0,0,577.87,522.27Z" transform="translate(131.43 464.39)"/><path class="cls-3" d="M556.56,499.68,552,495.1l4.58-4.57a1.28,1.28,0,0,0,0-1.81l-4-4a1.27,1.27,0,0,0-1.8,0l-4.58,4.57-4.57-4.57a1.28,1.28,0,0,0-1.81,0l-4,4a1.27,1.27,0,0,0,0,1.81l4.57,4.57-4.57,4.58a1.27,1.27,0,0,0,0,1.8l4,4a1.28,1.28,0,0,0,1.81,0l4.57-4.58,4.58,4.58a1.27,1.27,0,0,0,1.8,0l4-4A1.27,1.27,0,0,0,556.56,499.68Zm-13.08-4.58a2.68,2.68,0,0,1,4.58-1.89,2.68,2.68,0,1,1-3.79,3.79A2.75,2.75,0,0,1,543.48,495.1Z" transform="translate(131.43 464.39)"/><path class="cls-7" d="M569.16,575.11l97-97a3.8,3.8,0,0,0,0-5.4l-60-60.05a3.83,3.83,0,0,0-5.41,0l-97,97S493,520,525.92,552.91,569.16,575.11,569.16,575.11ZM552.54,505.5a1.27,1.27,0,0,1-1.8,0l-4.58-4.58-4.57,4.58a1.28,1.28,0,0,1-1.81,0l-4-4a1.27,1.27,0,0,1,0-1.8l4.57-4.58-4.57-4.57a1.27,1.27,0,0,1,0-1.81l4-4a1.28,1.28,0,0,1,1.81,0l4.57,4.57,4.58-4.57a1.27,1.27,0,0,1,1.8,0l4,4a1.28,1.28,0,0,1,0,1.81L552,495.1l4.58,4.58a1.27,1.27,0,0,1,0,1.8Zm14.76-8a2.91,2.91,0,0,1,0-4.12,2.83,2.83,0,0,1,2.06-.85,2.87,2.87,0,0,1,2.06.85l13.43,13.43a2.91,2.91,0,0,1-4.12,4.12Zm2.46,32.89a5.73,5.73,0,1,1,8.11,0A5.73,5.73,0,0,1,569.76,530.38Zm-16.3,26.31a.88.88,0,1,1,.9-.85A.87.87,0,0,1,553.46,556.69Zm3.32-3.08a.88.88,0,0,1,.06-1.75.88.88,0,1,1-.06,1.75Zm3.32-3.07a.88.88,0,0,1-.84-.91.87.87,0,0,1,.91-.85.88.88,0,0,1,.84.91A.87.87,0,0,1,560.1,550.54Zm-6.76,9.34a.88.88,0,0,1,.06-1.76.88.88,0,1,1-.06,1.76Zm3.33-3.08a.88.88,0,1,1,.06-1.75.88.88,0,1,1-.06,1.75Zm3.32-3.07a.88.88,0,1,1,.91-.85A.88.88,0,0,1,560,553.73Zm3.38-4.83a.88.88,0,1,1-.06,1.75.88.88,0,1,1,.06-1.75Zm-10.14,14.17a.88.88,0,1,1,.06-1.76.88.88,0,0,1-.06,1.76Zm3.32-3.08a.88.88,0,1,1,.91-.84A.87.87,0,0,1,556.55,560Zm3.33-3.07a.88.88,0,0,1,.06-1.76.88.88,0,0,1-.06,1.76Zm3.32-3.08a.87.87,0,0,1-.84-.91.88.88,0,1,1,.84.91Zm21.94-15.44a5.73,5.73,0,1,1,8.11,0A5.73,5.73,0,0,1,585.14,538.4Zm-15.63,18.86a.88.88,0,0,1,.06-1.76.88.88,0,1,1-.06,1.76Zm-3.1-3.31a.88.88,0,1,1,.06-1.75.88.88,0,1,1-.06,1.75Zm-10,9.23a.88.88,0,1,1,.91-.84A.88.88,0,0,1,556.44,563.18Zm3.32-3.07a.88.88,0,0,1,.06-1.76.88.88,0,1,1-.06,1.76Zm3.33-3.08a.88.88,0,1,1,.91-.84A.88.88,0,0,1,563.09,557Zm-6.77,9.34a.88.88,0,1,1,.91-.84A.87.87,0,0,1,556.32,566.37Zm3.33-3.07a.88.88,0,0,1,.07-1.76.88.88,0,0,1-.07,1.76Zm3.32-3.08a.88.88,0,1,1,.91-.85A.87.87,0,0,1,563,560.22Zm3.33-3.07a.88.88,0,1,1,.91-.85A.88.88,0,0,1,566.3,557.15Zm-6.76,9.34a.88.88,0,1,1,.91-.85A.9.9,0,0,1,559.54,566.49Zm3.32-3.08a.87.87,0,0,1-.85-.91.88.88,0,0,1,.91-.84.87.87,0,0,1,.85.9A.88.88,0,0,1,562.86,563.41Zm3.32-3.08a.88.88,0,1,1,.06-1.75.88.88,0,1,1-.06,1.75Zm-6.76,9.34a.88.88,0,1,1,.91-.84A.88.88,0,0,1,559.42,569.67Zm3.33-3.07a.88.88,0,0,1,.06-1.76.9.9,0,0,1,.85.91A.88.88,0,0,1,562.75,566.6Zm3.32-3.08a.86.86,0,0,1-.84-.9.88.88,0,1,1,.84.9Zm3.32-3.07a.88.88,0,1,1,.91-.85A.87.87,0,0,1,569.39,560.45Zm-6.76,9.34a.88.88,0,0,1,.06-1.76.88.88,0,0,1-.06,1.76Zm3.33-3.07a.88.88,0,1,1,.91-.85A.9.9,0,0,1,566,566.72Zm3.32-3.09a.88.88,0,1,1,.91-.84A.88.88,0,0,1,569.28,563.63Zm13.09-66.86c-28.72-28.72-23.3-31.35-23.3-31.35l42-42a3.82,3.82,0,0,1,5.41,0l49.24,49.24a3.83,3.83,0,0,1,0,5.41l-42,42S611.09,525.49,582.37,496.77Z" transform="translate(131.43 464.39)"/><rect class="cls-7" x="488.05" y="911.28" width="14.77" height="14.77"/><rect class="cls-7" x="488.05" y="886.93" width="14.77" height="14.77"/><rect class="cls-7" x="488.05" y="935.63" width="14.77" height="14.77"/><rect class="cls-7" x="488.05" y="959.97" width="14.77" height="14.77"/><rect class="cls-7" x="488.05" y="984.32" width="14.77" height="14.77"/><rect class="cls-12" x="359.08" y="699.38" width="14.77" height="14.77"/><rect class="cls-12" x="359.08" y="675.03" width="14.77" height="14.77"/><rect class="cls-12" x="359.08" y="723.72" width="14.77" height="14.77"/><rect class="cls-12" x="359.08" y="748.07" width="14.77" height="14.77"/><rect class="cls-12" x="359.08" y="772.41" width="14.77" height="14.77"/><rect class="cls-8" x="594.4" y="1127.67" width="14.77" height="14.77"/><rect class="cls-8" x="594.4" y="1103.32" width="14.77" height="14.77"/><rect class="cls-8" x="594.4" y="1152.02" width="14.77" height="14.77"/><rect class="cls-8" x="594.4" y="1176.36" width="14.77" height="14.77"/><rect class="cls-8" x="594.4" y="1200.71" width="14.77" height="14.77"/><path class="cls-6" d="M378.55,226.09a6.55,6.55,0,1,1-6.55-6.55A6.56,6.56,0,0,1,378.55,226.09Z" transform="translate(131.43 464.39)"/><path class="cls-7" d="M364.73,242.39a6.56,6.56,0,1,1-6.55-6.56A6.55,6.55,0,0,1,364.73,242.39Z" transform="translate(131.43 464.39)"/><path class="cls-8" d="M392.38,242.39a6.56,6.56,0,1,1-6.56-6.56A6.56,6.56,0,0,1,392.38,242.39Z" transform="translate(131.43 464.39)"/><path class="cls-9" d="M378.55,255.5a6.55,6.55,0,1,1-6.55-6.56A6.55,6.55,0,0,1,378.55,255.5Z" transform="translate(131.43 464.39)"/><path class="cls-6" d="M175.44,632.15a6.56,6.56,0,1,1-6.55-6.55A6.56,6.56,0,0,1,175.44,632.15Z" transform="translate(131.43 464.39)"/><path class="cls-7" d="M161.62,648.45a6.56,6.56,0,1,1-6.56-6.55A6.56,6.56,0,0,1,161.62,648.45Z" transform="translate(131.43 464.39)"/><path class="cls-8" d="M189.27,648.45a6.56,6.56,0,1,1-6.56-6.55A6.56,6.56,0,0,1,189.27,648.45Z" transform="translate(131.43 464.39)"/><path class="cls-9" d="M175.44,661.56a6.56,6.56,0,1,1-6.55-6.56A6.55,6.55,0,0,1,175.44,661.56Z" transform="translate(131.43 464.39)"/><path class="cls-6" d="M143.16,474.83a6.55,6.55,0,1,1,0-9.26A6.55,6.55,0,0,1,143.16,474.83Z" transform="translate(131.43 464.39)"/><path class="cls-7" d="M121.86,476.58a6.55,6.55,0,1,1,0-9.27A6.54,6.54,0,0,1,121.86,476.58Z" transform="translate(131.43 464.39)"/><path class="cls-8" d="M141.41,496.13a6.55,6.55,0,1,1,0-9.27A6.54,6.54,0,0,1,141.41,496.13Z" transform="translate(131.43 464.39)"/><path class="cls-9" d="M122.37,495.62a6.55,6.55,0,1,1,0-9.26A6.55,6.55,0,0,1,122.37,495.62Z" transform="translate(131.43 464.39)"/><path class="cls-3" d="M567.31,403.89H554.55V391.11A2.51,2.51,0,0,0,552,388.6H540.83a2.51,2.51,0,0,0-2.51,2.51v12.78H525.55A2.51,2.51,0,0,0,523,406.4v11.21a2.51,2.51,0,0,0,2.52,2.51h12.77v12.77a2.51,2.51,0,0,0,2.51,2.52H552a2.51,2.51,0,0,0,2.51-2.52V420.12h12.76a2.5,2.5,0,0,0,2.52-2.51V406.4A2.5,2.5,0,0,0,567.31,403.89Zm-24.62,11.85a5.29,5.29,0,1,1,3.74,1.54A5.3,5.3,0,0,1,542.69,415.74Z" transform="translate(131.43 464.39)"/><path class="cls-3" d="M385.47,652.24H372.71V639.47A2.51,2.51,0,0,0,370.2,637H359a2.51,2.51,0,0,0-2.51,2.52v12.77H343.71a2.51,2.51,0,0,0-2.52,2.51V666a2.52,2.52,0,0,0,2.52,2.52h12.77v12.76a2.51,2.51,0,0,0,2.51,2.52H370.2a2.51,2.51,0,0,0,2.51-2.52V668.48h12.76A2.52,2.52,0,0,0,388,666V654.75A2.51,2.51,0,0,0,385.47,652.24Zm-24.62,11.85a5.29,5.29,0,0,1,0-7.48,5.35,5.35,0,0,1,3.74-1.55,5.29,5.29,0,1,1-3.74,9Z" transform="translate(131.43 464.39)"/><polygon class="cls-24" points="108.84 876.43 72.01 839.59 108.84 802.75 108.84 876.43"/><polygon class="cls-18" points="18.23 765.55 46.57 749.19 74.91 765.55 74.91 798.28 46.57 814.64 18.23 798.28 18.23 765.55"/><polygon class="cls-10" points="69.74 868.69 82.2 893.92 110.04 897.97 89.89 917.61 94.65 945.34 69.74 932.25 44.84 945.34 49.6 917.61 29.45 897.97 57.29 893.92 69.74 868.69"/><polygon class="cls-10" points="170.33 944.33 157.34 921.82 170.33 899.3 196.33 899.3 209.33 921.82 196.33 944.33 170.33 944.33"/><polygon class="cls-15" points="174.31 937.45 165.28 921.82 174.31 906.18 192.36 906.18 201.38 921.82 192.36 937.45 174.31 937.45"/><rect class="cls-9" x="90.2" y="328.54" width="42.21" height="42.21" transform="translate(-83.21 645.51) rotate(-45)"/><rect class="cls-13" x="100.53" y="338.87" width="21.55" height="21.55" transform="translate(-83.21 645.51) rotate(-45)"/><rect class="cls-6" x="164.2" y="772.33" width="39.42" height="107.52"/><rect class="cls-13" x="169.72" y="783.97" width="28.37" height="84.24"/><rect class="cls-16" x="121.45" y="170.58" width="43.75" height="50.33" transform="translate(35 623.07) rotate(-45)"/><path class="cls-3" d="M190.29,204.11a3.83,3.83,0,0,0,0-5.41l-49.24-49.23a3.8,3.8,0,0,0-5.4,0l-42,42s-5.42,2.63,23.3,31.35,31.35,23.29,31.35,23.29Zm-65.65-38.94a1.24,1.24,0,1,1,1.75,0A1.24,1.24,0,0,1,124.64,165.17Zm21,63.84-35.59-35.59L141,162.48l35.6,35.59Z" transform="translate(131.43 464.39)"/><path class="cls-25" d="M94.05,294a.88.88,0,1,0-.06,1.75.88.88,0,1,0,.06-1.75Z" transform="translate(131.43 464.39)"/><path class="cls-25" d="M97.27,294.08a.88.88,0,1,0,.84.91A.88.88,0,0,0,97.27,294.08Z" transform="translate(131.43 464.39)"/><path class="cls-25" d="M100.59,291a.88.88,0,0,0-.91.85.88.88,0,0,0,1.76.06A.88.88,0,0,0,100.59,291Z" transform="translate(131.43 464.39)"/><path class="cls-25" d="M97.38,290.89a.88.88,0,1,0-.06,1.76.88.88,0,0,0,.91-.85A.9.9,0,0,0,97.38,290.89Z" transform="translate(131.43 464.39)"/><path class="cls-25" d="M97.5,287.71a.88.88,0,1,0-.07,1.75.88.88,0,0,0,.91-.85A.86.86,0,0,0,97.5,287.71Z" transform="translate(131.43 464.39)"/><path class="cls-25" d="M94.29,287.59a.87.87,0,0,0-.91.85.88.88,0,1,0,.91-.85Z" transform="translate(131.43 464.39)"/><path class="cls-25" d="M94.17,290.78a.88.88,0,1,0-.06,1.76.9.9,0,0,0,.91-.85A.88.88,0,0,0,94.17,290.78Z" transform="translate(131.43 464.39)"/><path class="cls-25" d="M91,290.67a.88.88,0,1,0-.07,1.75.88.88,0,1,0,.07-1.75Z" transform="translate(131.43 464.39)"/><path class="cls-25" d="M87.86,287.36a.88.88,0,1,0,.85.91A.89.89,0,0,0,87.86,287.36Z" transform="translate(131.43 464.39)"/><path class="cls-25" d="M91.08,287.48a.88.88,0,1,0,.84.91A.87.87,0,0,0,91.08,287.48Z" transform="translate(131.43 464.39)"/><path class="cls-25" d="M94.4,284.4a.87.87,0,0,0-.91.85.88.88,0,1,0,.91-.85Z" transform="translate(131.43 464.39)"/><path class="cls-25" d="M91.18,284.29a.88.88,0,1,0,.85.91A.88.88,0,0,0,91.18,284.29Z" transform="translate(131.43 464.39)"/><path class="cls-25" d="M88,284.17a.88.88,0,1,0,.84.91A.88.88,0,0,0,88,284.17Z" transform="translate(131.43 464.39)"/><path class="cls-25" d="M88.09,281a.88.88,0,1,0,.85.91A.9.9,0,0,0,88.09,281Z" transform="translate(131.43 464.39)"/><path class="cls-25" d="M91.3,281.1a.88.88,0,1,0,.85.91A.87.87,0,0,0,91.3,281.1Z" transform="translate(131.43 464.39)"/><path class="cls-25" d="M91.41,277.91a.88.88,0,1,0,.85.9A.89.89,0,0,0,91.41,277.91Z" transform="translate(131.43 464.39)"/><path class="cls-25" d="M94.62,278a.88.88,0,1,0,.85.91A.88.88,0,0,0,94.62,278Z" transform="translate(131.43 464.39)"/><path class="cls-25" d="M94.51,281.21a.88.88,0,1,0,.85.91A.89.89,0,0,0,94.51,281.21Z" transform="translate(131.43 464.39)"/><path class="cls-25" d="M97.72,281.33a.87.87,0,0,0-.91.84.89.89,0,0,0,.85.91.88.88,0,1,0,.06-1.75Z" transform="translate(131.43 464.39)"/><path class="cls-25" d="M97.61,284.51a.88.88,0,1,0,.85.91A.9.9,0,0,0,97.61,284.51Z" transform="translate(131.43 464.39)"/><path class="cls-25" d="M100.81,284.63a.88.88,0,1,0,.85.91A.87.87,0,0,0,100.81,284.63Z" transform="translate(131.43 464.39)"/><path class="cls-25" d="M100.7,287.81a.89.89,0,0,0-.9.86.86.86,0,0,0,.84.9.87.87,0,0,0,.91-.84A.88.88,0,0,0,100.7,287.81Z" transform="translate(131.43 464.39)"/><path class="cls-25" d="M103.91,287.93a.88.88,0,1,0,.85.91A.87.87,0,0,0,103.91,287.93Z" transform="translate(131.43 464.39)"/><path class="cls-25" d="M104,284.74a.88.88,0,1,0,.85.91A.9.9,0,0,0,104,284.74Z" transform="translate(131.43 464.39)"/><path class="cls-25" d="M104.15,281.55a.88.88,0,0,0-.07,1.76.88.88,0,0,0,.07-1.76Z" transform="translate(131.43 464.39)"/><path class="cls-25" d="M100.93,281.44a.88.88,0,1,0,.85.91A.88.88,0,0,0,100.93,281.44Z" transform="translate(131.43 464.39)"/><path class="cls-25" d="M101,278.25a.88.88,0,1,0,.85.91A.88.88,0,0,0,101,278.25Z" transform="translate(131.43 464.39)"/><path class="cls-25" d="M97.83,278.13a.89.89,0,0,0-.9.85.88.88,0,1,0,1.75.06A.88.88,0,0,0,97.83,278.13Z" transform="translate(131.43 464.39)"/><path class="cls-25" d="M97.88,276.7A.88.88,0,1,0,98,275a.88.88,0,1,0-.07,1.75Z" transform="translate(131.43 464.39)"/><path class="cls-25" d="M94.74,274.83a.87.87,0,0,0-.91.85.88.88,0,0,0,.85.91.87.87,0,0,0,.9-.85A.88.88,0,0,0,94.74,274.83Z" transform="translate(131.43 464.39)"/><path class="cls-25" d="M82.63,223.05a2.68,2.68,0,0,0,0-3.79,2.67,2.67,0,0,0-3.79,0,2.71,2.71,0,0,0-.79,1.89,2.75,2.75,0,0,0,.79,1.9A2.69,2.69,0,0,0,82.63,223.05Z" transform="translate(131.43 464.39)"/><path class="cls-26" d="M119.42,237a2.91,2.91,0,0,0,0-4.12L106,219.42a2.92,2.92,0,0,0-4.12,0,2.91,2.91,0,0,0,0,4.12L115.3,237A2.91,2.91,0,0,0,119.42,237Z" transform="translate(131.43 464.39)"/><path class="cls-3" d="M127.82,264.45a5.73,5.73,0,1,0-8.11,0A5.72,5.72,0,0,0,127.82,264.45Z" transform="translate(131.43 464.39)"/><path class="cls-3" d="M112.44,248.32a5.73,5.73,0,1,0,0,8.11A5.73,5.73,0,0,0,112.44,248.32Z" transform="translate(131.43 464.39)"/><path class="cls-3" d="M91.13,225.73l-4.57-4.58,4.57-4.57a1.28,1.28,0,0,0,0-1.81l-4-4a1.28,1.28,0,0,0-1.81,0l-4.57,4.57-4.58-4.57a1.27,1.27,0,0,0-1.8,0l-4,4a1.28,1.28,0,0,0,0,1.81l4.58,4.57-4.58,4.58a1.27,1.27,0,0,0,0,1.8l4,4a1.27,1.27,0,0,0,1.8,0L80.73,227l4.58,4.58a1.27,1.27,0,0,0,1.8,0l4-4A1.27,1.27,0,0,0,91.13,225.73Zm-13.08-4.58a2.71,2.71,0,0,1,.79-1.89,2.67,2.67,0,0,1,3.79,0,2.68,2.68,0,1,1-3.79,3.79A2.75,2.75,0,0,1,78.05,221.15Z" transform="translate(131.43 464.39)"/><path class="cls-7" d="M103.73,301.16l97-97a3.8,3.8,0,0,0,0-5.4l-60-60a3.83,3.83,0,0,0-5.41,0l-97,97S27.56,246,60.49,279,103.73,301.16,103.73,301.16ZM87.11,231.55a1.27,1.27,0,0,1-1.8,0L80.73,227l-4.57,4.58a1.27,1.27,0,0,1-1.8,0l-4-4a1.27,1.27,0,0,1,0-1.8l4.58-4.58-4.58-4.57a1.28,1.28,0,0,1,0-1.81l4-4a1.27,1.27,0,0,1,1.8,0l4.58,4.57,4.57-4.57a1.28,1.28,0,0,1,1.81,0l4,4a1.28,1.28,0,0,1,0,1.81l-4.57,4.57,4.57,4.58a1.27,1.27,0,0,1,0,1.8Zm14.76-8a2.91,2.91,0,0,1,0-4.12,2.92,2.92,0,0,1,4.12,0l13.43,13.43A2.91,2.91,0,0,1,115.3,237Zm2.46,32.89a5.73,5.73,0,1,1,8.11,0A5.73,5.73,0,0,1,104.33,256.43ZM88,282.74a.88.88,0,1,1,.06-1.76.9.9,0,0,1,.85.91A.88.88,0,0,1,88,282.74Zm3.32-3.08a.88.88,0,0,1,.06-1.75.89.89,0,0,1,.85.9A.88.88,0,0,1,91.35,279.66Zm3.33-3.07a.88.88,0,0,1-.85-.91.87.87,0,0,1,.91-.85.88.88,0,0,1,.84.91A.87.87,0,0,1,94.68,276.59Zm-6.77,9.34a.88.88,0,1,1,.91-.85A.88.88,0,0,1,87.91,285.93Zm3.33-3.08a.88.88,0,1,1,.91-.84A.88.88,0,0,1,91.24,282.85Zm3.32-3.07a.88.88,0,1,1,.91-.85A.89.89,0,0,1,94.56,279.78ZM98,275a.88.88,0,1,1-.07,1.75A.88.88,0,1,1,98,275ZM87.8,289.12a.88.88,0,1,1,.91-.85A.89.89,0,0,1,87.8,289.12ZM91.12,286a.88.88,0,1,1,.91-.84A.87.87,0,0,1,91.12,286ZM94.45,283a.88.88,0,1,1,.91-.85A.88.88,0,0,1,94.45,283Zm3.32-3.08a.87.87,0,0,1-.84-.91.88.88,0,1,1,1.75.06A.88.88,0,0,1,97.77,279.89Zm21.94-15.44a5.73,5.73,0,1,1,8.11,0A5.73,5.73,0,0,1,119.71,264.45Zm-15.63,18.86a.88.88,0,0,1,.07-1.76.88.88,0,0,1-.07,1.76ZM101,280a.88.88,0,1,1,.91-.84A.88.88,0,0,1,101,280Zm-10,9.23a.88.88,0,1,1,.07-1.75.87.87,0,0,1,.84.91A.88.88,0,0,1,91,289.23Zm3.32-3.07a.88.88,0,0,1-.84-.91.88.88,0,1,1,.84.91Zm3.33-3.08a.89.89,0,0,1-.85-.91.88.88,0,1,1,.85.91Zm-6.77,9.34a.88.88,0,1,1,.92-.84A.88.88,0,0,1,90.89,292.42Zm3.33-3.07a.88.88,0,0,1-.84-.91.87.87,0,0,1,.91-.85.88.88,0,0,1-.07,1.76Zm3.32-3.08a.88.88,0,0,1,.07-1.76.9.9,0,0,1,.85.91A.88.88,0,0,1,97.54,286.27Zm3.33-3.07a.88.88,0,1,1,.06-1.76.88.88,0,0,1,.85.91A.89.89,0,0,1,100.87,283.2Zm-6.76,9.34a.88.88,0,1,1,.91-.85A.9.9,0,0,1,94.11,292.54Zm3.32-3.08a.88.88,0,1,1,.91-.85A.88.88,0,0,1,97.43,289.46Zm3.33-3.08a.88.88,0,1,1,.9-.84A.87.87,0,0,1,100.76,286.38ZM94,295.72a.88.88,0,1,1,.91-.84A.87.87,0,0,1,94,295.72Zm3.33-3.07a.88.88,0,1,1,.06-1.76.9.9,0,0,1,.85.91A.88.88,0,0,1,97.32,292.65Zm3.32-3.08a.86.86,0,0,1-.84-.9.88.88,0,1,1,1.75.06A.87.87,0,0,1,100.64,289.57ZM104,286.5a.88.88,0,1,1,.06-1.76.9.9,0,0,1,.85.91A.88.88,0,0,1,104,286.5Zm-6.77,9.34a.88.88,0,1,1,.91-.85A.88.88,0,0,1,97.2,295.84Zm3.33-3.07a.89.89,0,0,1-.85-.91.88.88,0,1,1,1.76.06A.9.9,0,0,1,100.53,292.77Zm3.32-3.09a.88.88,0,0,1,.06-1.75.88.88,0,1,1-.06,1.75Zm13.09-66.86c-28.72-28.72-23.3-31.35-23.3-31.35l42-42a3.8,3.8,0,0,1,5.4,0l49.24,49.23a3.83,3.83,0,0,1,0,5.41l-42,42S145.66,251.54,116.94,222.82Z" transform="translate(131.43 464.39)"/><path class="cls-14" d="M-32,306.72A28.17,28.17,0,0,0-8.11,320a28.21,28.21,0,0,0,28.2-28.2,28.21,28.21,0,0,0-28.2-28.21A28.14,28.14,0,0,0-30.65,274.8l23,16.76Z" transform="translate(131.43 464.39)"/><rect class="cls-8" x="128.97" y="853.72" width="14.77" height="14.77"/><rect class="cls-8" x="128.97" y="829.37" width="14.77" height="14.77"/><rect class="cls-8" x="128.97" y="878.07" width="14.77" height="14.77"/><rect class="cls-8" x="128.97" y="902.41" width="14.77" height="14.77"/><rect class="cls-8" x="128.97" y="926.76" width="14.77" height="14.77"/><path class="cls-3" d="M-80,378.29H-92.72V365.52A2.51,2.51,0,0,0-95.23,363h-11.21a2.51,2.51,0,0,0-2.51,2.52v12.77h-12.77a2.51,2.51,0,0,0-2.52,2.51V392a2.52,2.52,0,0,0,2.52,2.52h12.77v12.76a2.51,2.51,0,0,0,2.51,2.52h11.21a2.51,2.51,0,0,0,2.51-2.52V394.53H-80A2.51,2.51,0,0,0-77.44,392V380.8A2.51,2.51,0,0,0-80,378.29Zm-24.62,11.85a5.28,5.28,0,0,1-1.54-3.73,5.34,5.34,0,0,1,1.54-3.75,5.35,5.35,0,0,1,3.74-1.55,5.29,5.29,0,0,1,5.28,5.3,5.27,5.27,0,0,1-5.28,5.27A5.34,5.34,0,0,1-104.58,390.14Z" transform="translate(131.43 464.39)"/></g><circle class="cls-27" cx="747.82" cy="291.21" r="33.28" transform="matrix(0.61, -0.79, 0.79, 0.61, 190.93, 1168.21)"/><path class="cls-28" d="M766.11,272.92a25.87,25.87,0,1,1-36.59,0,25.89,25.89,0,0,1,36.59,0" transform="translate(131.43 464.39)"/><polygon class="cls-27" points="891.25 743.6 887.49 754.7 894.49 764.09 882.77 763.94 876.01 773.51 872.53 762.32 861.34 758.84 870.91 752.07 870.76 740.36 880.15 747.37 891.25 743.6"/><circle class="cls-27" cx="452.2" cy="540.58" r="33.28" transform="translate(-118.37 942.48) rotate(-45)"/><path class="cls-28" d="M470.49,522.29a25.87,25.87,0,1,1-36.58,0,25.89,25.89,0,0,1,36.58,0" transform="translate(131.43 464.39)"/><polygon class="cls-27" points="595.63 992.98 591.87 1004.08 598.87 1013.47 587.16 1013.32 580.39 1022.88 576.91 1011.69 565.72 1008.22 575.29 1001.45 575.14 989.73 584.53 996.74 595.63 992.98"/></g><path class="cls-30" d="M623,188.23a19.83,19.83,0,0,0-15.3-5.71,19.82,19.82,0,0,0-5.71-15.3c-7.91-7.91-21-7.61-29.32.67a29.2,29.2,0,0,0-5.38,7.45,34.22,34.22,0,0,0-1.74,4c-7,19,1.26,44.08,1.26,44.08s25.06,8.21,44.08,1.26a42.49,42.49,0,0,0,4-1.74,31,31,0,0,0,7.45-5.38c8.28-8.28,8.58-21.41.67-29.32" transform="translate(131.43 464.39)"/><path class="cls-30" d="M470,438.91a19.77,19.77,0,0,0-15.3-5.7,19.77,19.77,0,0,0-5.7-15.3c-7.92-7.92-21-7.62-29.33.67a29.64,29.64,0,0,0-5.38,7.44,36.14,36.14,0,0,0-1.74,4c-6.94,19,1.27,44.08,1.27,44.08s25,8.21,44.08,1.26c0,0,2.51-1,4-1.73a30.91,30.91,0,0,0,7.45-5.38c8.28-8.29,8.58-21.42.67-29.33" transform="translate(131.43 464.39)"/></g></svg>